%TF.GenerationSoftware,KiCad,Pcbnew,8.0.7*%
%TF.CreationDate,2024-12-31T18:49:18-05:00*%
%TF.ProjectId,12V-5V-3V3-BuckConverter,3132562d-3556-42d3-9356-332d4275636b,rev?*%
%TF.SameCoordinates,Original*%
%TF.FileFunction,Copper,L1,Top*%
%TF.FilePolarity,Positive*%
%FSLAX46Y46*%
G04 Gerber Fmt 4.6, Leading zero omitted, Abs format (unit mm)*
G04 Created by KiCad (PCBNEW 8.0.7) date 2024-12-31 18:49:18*
%MOMM*%
%LPD*%
G01*
G04 APERTURE LIST*
G04 Aperture macros list*
%AMRoundRect*
0 Rectangle with rounded corners*
0 $1 Rounding radius*
0 $2 $3 $4 $5 $6 $7 $8 $9 X,Y pos of 4 corners*
0 Add a 4 corners polygon primitive as box body*
4,1,4,$2,$3,$4,$5,$6,$7,$8,$9,$2,$3,0*
0 Add four circle primitives for the rounded corners*
1,1,$1+$1,$2,$3*
1,1,$1+$1,$4,$5*
1,1,$1+$1,$6,$7*
1,1,$1+$1,$8,$9*
0 Add four rect primitives between the rounded corners*
20,1,$1+$1,$2,$3,$4,$5,0*
20,1,$1+$1,$4,$5,$6,$7,0*
20,1,$1+$1,$6,$7,$8,$9,0*
20,1,$1+$1,$8,$9,$2,$3,0*%
G04 Aperture macros list end*
%TA.AperFunction,SMDPad,CuDef*%
%ADD10RoundRect,0.250000X0.300000X-2.050000X0.300000X2.050000X-0.300000X2.050000X-0.300000X-2.050000X0*%
%TD*%
%TA.AperFunction,SMDPad,CuDef*%
%ADD11RoundRect,0.250000X2.375000X-2.025000X2.375000X2.025000X-2.375000X2.025000X-2.375000X-2.025000X0*%
%TD*%
%TA.AperFunction,SMDPad,CuDef*%
%ADD12RoundRect,0.250002X5.149998X-4.449998X5.149998X4.449998X-5.149998X4.449998X-5.149998X-4.449998X0*%
%TD*%
%TA.AperFunction,ComponentPad*%
%ADD13C,2.400000*%
%TD*%
%TA.AperFunction,ComponentPad*%
%ADD14C,2.800000*%
%TD*%
%TA.AperFunction,ComponentPad*%
%ADD15R,2.800000X2.800000*%
%TD*%
%TA.AperFunction,ComponentPad*%
%ADD16O,2.400000X2.400000*%
%TD*%
%TA.AperFunction,ComponentPad*%
%ADD17R,2.400000X2.400000*%
%TD*%
%TA.AperFunction,ComponentPad*%
%ADD18R,1.600000X1.600000*%
%TD*%
%TA.AperFunction,ComponentPad*%
%ADD19C,1.600000*%
%TD*%
%TA.AperFunction,ComponentPad*%
%ADD20R,2.000000X2.000000*%
%TD*%
%TA.AperFunction,ComponentPad*%
%ADD21C,2.000000*%
%TD*%
%TA.AperFunction,Conductor*%
%ADD22C,0.200000*%
%TD*%
G04 APERTURE END LIST*
D10*
%TO.P,U1,1,VIN*%
%TO.N,Net-(J1-Pin_2)*%
X164600000Y-86775000D03*
%TO.P,U1,2,OUT*%
%TO.N,Net-(D2-K)*%
X166300000Y-86775000D03*
%TO.P,U1,3,GND*%
%TO.N,Earth*%
X168000000Y-86775000D03*
D11*
X165225000Y-80050000D03*
X170775000Y-80050000D03*
D12*
X168000000Y-77625000D03*
D11*
X165225000Y-75200000D03*
X170775000Y-75200000D03*
D10*
%TO.P,U1,4,FB*%
%TO.N,Net-(J2-Pin_2)*%
X169700000Y-86775000D03*
%TO.P,U1,5,~{ON}/OFF*%
%TO.N,Earth*%
X171400000Y-86775000D03*
%TD*%
D13*
%TO.P,L2,1,1*%
%TO.N,Net-(J2-Pin_2)*%
X190400000Y-76000000D03*
%TO.P,L2,2,2*%
%TO.N,Net-(D2-K)*%
X190400000Y-86000000D03*
%TD*%
%TO.P,L1,1,1*%
%TO.N,Net-(J3-Pin_2)*%
X190000000Y-99250000D03*
%TO.P,L1,2,2*%
%TO.N,Net-(D1-K)*%
X190000000Y-109250000D03*
%TD*%
D14*
%TO.P,J3,2,Pin_2*%
%TO.N,Net-(J3-Pin_2)*%
X214000000Y-107000000D03*
D15*
%TO.P,J3,1,Pin_1*%
%TO.N,Earth*%
X214000000Y-102000000D03*
%TD*%
%TO.P,J2,1,Pin_1*%
%TO.N,Earth*%
X213905000Y-79750000D03*
D14*
%TO.P,J2,2,Pin_2*%
%TO.N,Net-(J2-Pin_2)*%
X213905000Y-84750000D03*
%TD*%
%TO.P,J1,2,Pin_2*%
%TO.N,Net-(J1-Pin_2)*%
X154500000Y-90250000D03*
D15*
%TO.P,J1,1,Pin_1*%
%TO.N,Earth*%
X154500000Y-95250000D03*
%TD*%
D16*
%TO.P,D2,2,A*%
%TO.N,Earth*%
X178900000Y-74650000D03*
D17*
%TO.P,D2,1,K*%
%TO.N,Net-(D2-K)*%
X178900000Y-87350000D03*
%TD*%
%TO.P,D1,1,K*%
%TO.N,Net-(D1-K)*%
X178142677Y-110225000D03*
D16*
%TO.P,D1,2,A*%
%TO.N,Earth*%
X178142677Y-97525000D03*
%TD*%
D18*
%TO.P,C4,1*%
%TO.N,Net-(J2-Pin_2)*%
X201900000Y-82182380D03*
D19*
%TO.P,C4,2*%
%TO.N,Earth*%
X201900000Y-79682380D03*
%TD*%
%TO.P,C3,2*%
%TO.N,Earth*%
X201000000Y-102932380D03*
D18*
%TO.P,C3,1*%
%TO.N,Net-(J3-Pin_2)*%
X201000000Y-105432380D03*
%TD*%
D20*
%TO.P,C2,1*%
%TO.N,Net-(J1-Pin_2)*%
X159267677Y-78000000D03*
D21*
%TO.P,C2,2*%
%TO.N,Earth*%
X154267677Y-78000000D03*
%TD*%
%TO.P,C1,2*%
%TO.N,Earth*%
X154367677Y-107000000D03*
D20*
%TO.P,C1,1*%
%TO.N,Net-(J1-Pin_2)*%
X159367677Y-107000000D03*
%TD*%
D10*
%TO.P,U2,5,~{ON}/OFF*%
%TO.N,Earth*%
X171442677Y-109650000D03*
%TO.P,U2,4,FB*%
%TO.N,Net-(J3-Pin_2)*%
X169742677Y-109650000D03*
D11*
%TO.P,U2,3,GND*%
%TO.N,Earth*%
X170817677Y-98075000D03*
X165267677Y-98075000D03*
D12*
X168042677Y-100500000D03*
D11*
X170817677Y-102925000D03*
X165267677Y-102925000D03*
D10*
X168042677Y-109650000D03*
%TO.P,U2,2,OUT*%
%TO.N,Net-(D1-K)*%
X166342677Y-109650000D03*
%TO.P,U2,1,VIN*%
%TO.N,Net-(J1-Pin_2)*%
X164642677Y-109650000D03*
%TD*%
D22*
%TO.N,Net-(J2-Pin_2)*%
X204467620Y-84750000D02*
X201900000Y-82182380D01*
X213905000Y-84750000D02*
X204467620Y-84750000D01*
%TO.N,Earth*%
X201967620Y-79750000D02*
X201900000Y-79682380D01*
X213905000Y-79750000D02*
X201967620Y-79750000D01*
%TO.N,Net-(J3-Pin_2)*%
X214000000Y-107000000D02*
X202567620Y-107000000D01*
X202567620Y-107000000D02*
X201000000Y-105432380D01*
%TO.N,Earth*%
X213067620Y-102932380D02*
X214000000Y-102000000D01*
X201000000Y-102932380D02*
X213067620Y-102932380D01*
X212905000Y-102000000D02*
X213000000Y-102000000D01*
%TO.N,Net-(J1-Pin_2)*%
X158500000Y-107000000D02*
X159367677Y-107000000D01*
X156500000Y-92250000D02*
X156500000Y-105000000D01*
X154500000Y-90250000D02*
X156500000Y-92250000D01*
X156500000Y-105000000D02*
X158500000Y-107000000D01*
X154500000Y-82767677D02*
X159267677Y-78000000D01*
X154500000Y-90250000D02*
X154500000Y-82767677D01*
%TO.N,Earth*%
X151500000Y-80767677D02*
X154267677Y-78000000D01*
X153250000Y-95250000D02*
X151500000Y-93500000D01*
X151500000Y-93500000D02*
X151500000Y-80767677D01*
X154500000Y-95250000D02*
X153250000Y-95250000D01*
X154367677Y-95382323D02*
X154500000Y-95250000D01*
X154367677Y-107000000D02*
X154367677Y-95382323D01*
X171442677Y-109650000D02*
X171442677Y-104224999D01*
X171442677Y-104224999D02*
X174333838Y-101333838D01*
X168042677Y-107625000D02*
X174333838Y-101333838D01*
X174333838Y-101333838D02*
X178142677Y-97525000D01*
X168042677Y-109650000D02*
X168042677Y-107625000D01*
X157067677Y-75200000D02*
X165225000Y-75200000D01*
X154267677Y-78000000D02*
X157067677Y-75200000D01*
X180100000Y-73450000D02*
X178900000Y-74650000D01*
X195667620Y-73450000D02*
X180100000Y-73450000D01*
X201900000Y-79682380D02*
X195667620Y-73450000D01*
%TO.N,Net-(J2-Pin_2)*%
X174500000Y-85000000D02*
X183500000Y-76000000D01*
X174500000Y-90000000D02*
X174500000Y-85000000D01*
X170625000Y-90000000D02*
X174500000Y-90000000D01*
X169700000Y-89075000D02*
X170625000Y-90000000D01*
X183500000Y-76000000D02*
X190400000Y-76000000D01*
X169700000Y-86775000D02*
X169700000Y-89075000D01*
%TO.N,Net-(D2-K)*%
X166300000Y-89075000D02*
X166300000Y-86775000D01*
X168225000Y-91000000D02*
X166300000Y-89075000D01*
X175250000Y-91000000D02*
X168225000Y-91000000D01*
X178900000Y-87350000D02*
X175250000Y-91000000D01*
X189050000Y-87350000D02*
X178900000Y-87350000D01*
X190400000Y-86000000D02*
X189050000Y-87350000D01*
%TO.N,Net-(J2-Pin_2)*%
X195717620Y-76000000D02*
X201900000Y-82182380D01*
X190400000Y-76000000D02*
X195717620Y-76000000D01*
X202082380Y-82000000D02*
X201900000Y-82182380D01*
%TO.N,Earth*%
X195592620Y-97525000D02*
X178142677Y-97525000D01*
X201000000Y-102932380D02*
X195592620Y-97525000D01*
%TO.N,Net-(J3-Pin_2)*%
X196182380Y-105432380D02*
X201000000Y-105432380D01*
X190000000Y-99250000D02*
X196182380Y-105432380D01*
%TO.N,Net-(D1-K)*%
X189025000Y-110225000D02*
X190000000Y-109250000D01*
X178142677Y-110225000D02*
X189025000Y-110225000D01*
X168392677Y-114000000D02*
X166342677Y-111950000D01*
X166342677Y-111950000D02*
X166342677Y-109650000D01*
X174367677Y-114000000D02*
X168392677Y-114000000D01*
X178142677Y-110225000D02*
X174367677Y-114000000D01*
%TO.N,Net-(J3-Pin_2)*%
X182250000Y-99250000D02*
X190000000Y-99250000D01*
X174000000Y-107500000D02*
X182250000Y-99250000D01*
X174000000Y-113000000D02*
X174000000Y-107500000D01*
X169742677Y-111950000D02*
X170792677Y-113000000D01*
X169742677Y-109650000D02*
X169742677Y-111950000D01*
X170792677Y-113000000D02*
X174000000Y-113000000D01*
%TO.N,Earth*%
X171400000Y-81075000D02*
X174487500Y-77987500D01*
X171400000Y-86775000D02*
X171400000Y-81075000D01*
X168000000Y-84475000D02*
X174487500Y-77987500D01*
X174487500Y-77987500D02*
X177825000Y-74650000D01*
X177825000Y-74650000D02*
X178900000Y-74650000D01*
X168000000Y-86775000D02*
X168000000Y-84475000D01*
%TO.N,Net-(J1-Pin_2)*%
X159267677Y-81442677D02*
X164600000Y-86775000D01*
X159267677Y-78000000D02*
X159267677Y-81442677D01*
X161992677Y-107000000D02*
X164642677Y-109650000D01*
X159367677Y-107000000D02*
X161992677Y-107000000D01*
%TD*%
M02*
