M48
; DRILL file {KiCad 8.0.7} date 2024-12-31T18:49:22-0500
; FORMAT={-:-/ absolute / inch / decimal}
; #@! TF.CreationDate,2024-12-31T18:49:22-05:00
; #@! TF.GenerationSoftware,Kicad,Pcbnew,8.0.7
; #@! TF.FileFunction,Plated,1,2,PTH
FMAT,2
INCH
; #@! TA.AperFunction,Plated,PTH,ComponentDrill
T1C0.0315
; #@! TA.AperFunction,Plated,PTH,ComponentDrill
T2C0.0394
; #@! TA.AperFunction,Plated,PTH,ComponentDrill
T3C0.0472
; #@! TA.AperFunction,Plated,PTH,ComponentDrill
T4C0.0512
%
G90
G05
T1
X7.9134Y-4.0525
X7.9134Y-4.1509
X7.9488Y-3.1371
X7.9488Y-3.2355
T2
X6.0735Y-3.0709
X6.0775Y-4.2126
X6.2704Y-3.0709
X6.2743Y-4.2126
T3
X7.0135Y-3.8396
X7.0135Y-4.3396
X7.0433Y-2.939
X7.0433Y-3.439
X7.4803Y-3.9075
X7.4803Y-4.3012
X7.4961Y-2.9921
X7.4961Y-3.3858
T4
X6.0827Y-3.5531
X6.0827Y-3.75
X8.4215Y-3.1398
X8.4215Y-3.3366
X8.4252Y-4.0157
X8.4252Y-4.2126
M30
