%TF.GenerationSoftware,KiCad,Pcbnew,8.0.7*%
%TF.CreationDate,2024-12-31T18:49:18-05:00*%
%TF.ProjectId,12V-5V-3V3-BuckConverter,3132562d-3556-42d3-9356-332d4275636b,rev?*%
%TF.SameCoordinates,Original*%
%TF.FileFunction,Soldermask,Top*%
%TF.FilePolarity,Negative*%
%FSLAX46Y46*%
G04 Gerber Fmt 4.6, Leading zero omitted, Abs format (unit mm)*
G04 Created by KiCad (PCBNEW 8.0.7) date 2024-12-31 18:49:18*
%MOMM*%
%LPD*%
G01*
G04 APERTURE LIST*
G04 Aperture macros list*
%AMRoundRect*
0 Rectangle with rounded corners*
0 $1 Rounding radius*
0 $2 $3 $4 $5 $6 $7 $8 $9 X,Y pos of 4 corners*
0 Add a 4 corners polygon primitive as box body*
4,1,4,$2,$3,$4,$5,$6,$7,$8,$9,$2,$3,0*
0 Add four circle primitives for the rounded corners*
1,1,$1+$1,$2,$3*
1,1,$1+$1,$4,$5*
1,1,$1+$1,$6,$7*
1,1,$1+$1,$8,$9*
0 Add four rect primitives between the rounded corners*
20,1,$1+$1,$2,$3,$4,$5,0*
20,1,$1+$1,$4,$5,$6,$7,0*
20,1,$1+$1,$6,$7,$8,$9,0*
20,1,$1+$1,$8,$9,$2,$3,0*%
G04 Aperture macros list end*
%ADD10RoundRect,0.250000X0.300000X-2.050000X0.300000X2.050000X-0.300000X2.050000X-0.300000X-2.050000X0*%
%ADD11RoundRect,0.250002X5.149998X-4.449998X5.149998X4.449998X-5.149998X4.449998X-5.149998X-4.449998X0*%
%ADD12C,2.400000*%
%ADD13C,2.800000*%
%ADD14R,2.800000X2.800000*%
%ADD15C,2.500000*%
%ADD16O,2.400000X2.400000*%
%ADD17R,2.400000X2.400000*%
%ADD18R,1.600000X1.600000*%
%ADD19C,1.600000*%
%ADD20R,2.000000X2.000000*%
%ADD21C,2.000000*%
G04 APERTURE END LIST*
D10*
%TO.C,U1*%
X164600000Y-86775000D03*
X166300000Y-86775000D03*
X168000000Y-86775000D03*
D11*
X168000000Y-77625000D03*
D10*
X169700000Y-86775000D03*
X171400000Y-86775000D03*
%TD*%
D12*
%TO.C,L2*%
X190400000Y-76000000D03*
X190400000Y-86000000D03*
%TD*%
%TO.C,L1*%
X190000000Y-99250000D03*
X190000000Y-109250000D03*
%TD*%
D13*
%TO.C,J3*%
X214000000Y-107000000D03*
D14*
X214000000Y-102000000D03*
%TD*%
%TO.C,J2*%
X213905000Y-79750000D03*
D13*
X213905000Y-84750000D03*
%TD*%
%TO.C,J1*%
X154500000Y-90250000D03*
D14*
X154500000Y-95250000D03*
%TD*%
D15*
%TO.C,H4*%
X154000000Y-69500000D03*
%TD*%
%TO.C,H3*%
X154000000Y-115500000D03*
%TD*%
%TO.C,H2*%
X213000000Y-115500000D03*
%TD*%
%TO.C,H1*%
X213000000Y-69500000D03*
%TD*%
D16*
%TO.C,D2*%
X178900000Y-74650000D03*
D17*
X178900000Y-87350000D03*
%TD*%
%TO.C,D1*%
X178142677Y-110225000D03*
D16*
X178142677Y-97525000D03*
%TD*%
D18*
%TO.C,C4*%
X201900000Y-82182380D03*
D19*
X201900000Y-79682380D03*
%TD*%
%TO.C,C3*%
X201000000Y-102932380D03*
D18*
X201000000Y-105432380D03*
%TD*%
D20*
%TO.C,C2*%
X159267677Y-78000000D03*
D21*
X154267677Y-78000000D03*
%TD*%
%TO.C,C1*%
X154367677Y-107000000D03*
D20*
X159367677Y-107000000D03*
%TD*%
D10*
%TO.C,U2*%
X171442677Y-109650000D03*
X169742677Y-109650000D03*
D11*
X168042677Y-100500000D03*
D10*
X168042677Y-109650000D03*
X166342677Y-109650000D03*
X164642677Y-109650000D03*
%TD*%
M02*
