%TF.GenerationSoftware,KiCad,Pcbnew,8.0.7*%
%TF.CreationDate,2024-12-31T18:49:18-05:00*%
%TF.ProjectId,12V-5V-3V3-BuckConverter,3132562d-3556-42d3-9356-332d4275636b,rev?*%
%TF.SameCoordinates,Original*%
%TF.FileFunction,Legend,Top*%
%TF.FilePolarity,Positive*%
%FSLAX46Y46*%
G04 Gerber Fmt 4.6, Leading zero omitted, Abs format (unit mm)*
G04 Created by KiCad (PCBNEW 8.0.7) date 2024-12-31 18:49:18*
%MOMM*%
%LPD*%
G01*
G04 APERTURE LIST*
%ADD10C,0.150000*%
%ADD11C,0.120000*%
G04 APERTURE END LIST*
D10*
X204241541Y-84369819D02*
X204860588Y-84369819D01*
X204860588Y-84369819D02*
X204527255Y-84750771D01*
X204527255Y-84750771D02*
X204670112Y-84750771D01*
X204670112Y-84750771D02*
X204765350Y-84798390D01*
X204765350Y-84798390D02*
X204812969Y-84846009D01*
X204812969Y-84846009D02*
X204860588Y-84941247D01*
X204860588Y-84941247D02*
X204860588Y-85179342D01*
X204860588Y-85179342D02*
X204812969Y-85274580D01*
X204812969Y-85274580D02*
X204765350Y-85322200D01*
X204765350Y-85322200D02*
X204670112Y-85369819D01*
X204670112Y-85369819D02*
X204384398Y-85369819D01*
X204384398Y-85369819D02*
X204289160Y-85322200D01*
X204289160Y-85322200D02*
X204241541Y-85274580D01*
X205146303Y-84369819D02*
X205479636Y-85369819D01*
X205479636Y-85369819D02*
X205812969Y-84369819D01*
X206051065Y-84369819D02*
X206670112Y-84369819D01*
X206670112Y-84369819D02*
X206336779Y-84750771D01*
X206336779Y-84750771D02*
X206479636Y-84750771D01*
X206479636Y-84750771D02*
X206574874Y-84798390D01*
X206574874Y-84798390D02*
X206622493Y-84846009D01*
X206622493Y-84846009D02*
X206670112Y-84941247D01*
X206670112Y-84941247D02*
X206670112Y-85179342D01*
X206670112Y-85179342D02*
X206622493Y-85274580D01*
X206622493Y-85274580D02*
X206574874Y-85322200D01*
X206574874Y-85322200D02*
X206479636Y-85369819D01*
X206479636Y-85369819D02*
X206193922Y-85369819D01*
X206193922Y-85369819D02*
X206098684Y-85322200D01*
X206098684Y-85322200D02*
X206051065Y-85274580D01*
X207289160Y-84369819D02*
X207479636Y-84369819D01*
X207479636Y-84369819D02*
X207574874Y-84417438D01*
X207574874Y-84417438D02*
X207670112Y-84512676D01*
X207670112Y-84512676D02*
X207717731Y-84703152D01*
X207717731Y-84703152D02*
X207717731Y-85036485D01*
X207717731Y-85036485D02*
X207670112Y-85226961D01*
X207670112Y-85226961D02*
X207574874Y-85322200D01*
X207574874Y-85322200D02*
X207479636Y-85369819D01*
X207479636Y-85369819D02*
X207289160Y-85369819D01*
X207289160Y-85369819D02*
X207193922Y-85322200D01*
X207193922Y-85322200D02*
X207098684Y-85226961D01*
X207098684Y-85226961D02*
X207051065Y-85036485D01*
X207051065Y-85036485D02*
X207051065Y-84703152D01*
X207051065Y-84703152D02*
X207098684Y-84512676D01*
X207098684Y-84512676D02*
X207193922Y-84417438D01*
X207193922Y-84417438D02*
X207289160Y-84369819D01*
X208146303Y-84369819D02*
X208146303Y-85179342D01*
X208146303Y-85179342D02*
X208193922Y-85274580D01*
X208193922Y-85274580D02*
X208241541Y-85322200D01*
X208241541Y-85322200D02*
X208336779Y-85369819D01*
X208336779Y-85369819D02*
X208527255Y-85369819D01*
X208527255Y-85369819D02*
X208622493Y-85322200D01*
X208622493Y-85322200D02*
X208670112Y-85274580D01*
X208670112Y-85274580D02*
X208717731Y-85179342D01*
X208717731Y-85179342D02*
X208717731Y-84369819D01*
X209051065Y-84369819D02*
X209622493Y-84369819D01*
X209336779Y-85369819D02*
X209336779Y-84369819D01*
X159241541Y-89869819D02*
X159908207Y-89869819D01*
X159908207Y-89869819D02*
X159479636Y-90869819D01*
X160289160Y-90488866D02*
X161051065Y-90488866D01*
X162051064Y-90869819D02*
X161479636Y-90869819D01*
X161765350Y-90869819D02*
X161765350Y-89869819D01*
X161765350Y-89869819D02*
X161670112Y-90012676D01*
X161670112Y-90012676D02*
X161574874Y-90107914D01*
X161574874Y-90107914D02*
X161479636Y-90155533D01*
X162908207Y-89869819D02*
X162717731Y-89869819D01*
X162717731Y-89869819D02*
X162622493Y-89917438D01*
X162622493Y-89917438D02*
X162574874Y-89965057D01*
X162574874Y-89965057D02*
X162479636Y-90107914D01*
X162479636Y-90107914D02*
X162432017Y-90298390D01*
X162432017Y-90298390D02*
X162432017Y-90679342D01*
X162432017Y-90679342D02*
X162479636Y-90774580D01*
X162479636Y-90774580D02*
X162527255Y-90822200D01*
X162527255Y-90822200D02*
X162622493Y-90869819D01*
X162622493Y-90869819D02*
X162812969Y-90869819D01*
X162812969Y-90869819D02*
X162908207Y-90822200D01*
X162908207Y-90822200D02*
X162955826Y-90774580D01*
X162955826Y-90774580D02*
X163003445Y-90679342D01*
X163003445Y-90679342D02*
X163003445Y-90441247D01*
X163003445Y-90441247D02*
X162955826Y-90346009D01*
X162955826Y-90346009D02*
X162908207Y-90298390D01*
X162908207Y-90298390D02*
X162812969Y-90250771D01*
X162812969Y-90250771D02*
X162622493Y-90250771D01*
X162622493Y-90250771D02*
X162527255Y-90298390D01*
X162527255Y-90298390D02*
X162479636Y-90346009D01*
X162479636Y-90346009D02*
X162432017Y-90441247D01*
X163289160Y-89869819D02*
X163622493Y-90869819D01*
X163622493Y-90869819D02*
X163955826Y-89869819D01*
X164289160Y-90869819D02*
X164289160Y-89869819D01*
X164765350Y-90869819D02*
X164765350Y-89869819D01*
X164765350Y-89869819D02*
X165336778Y-90869819D01*
X165336778Y-90869819D02*
X165336778Y-89869819D01*
X207360588Y-101417438D02*
X207265350Y-101369819D01*
X207265350Y-101369819D02*
X207122493Y-101369819D01*
X207122493Y-101369819D02*
X206979636Y-101417438D01*
X206979636Y-101417438D02*
X206884398Y-101512676D01*
X206884398Y-101512676D02*
X206836779Y-101607914D01*
X206836779Y-101607914D02*
X206789160Y-101798390D01*
X206789160Y-101798390D02*
X206789160Y-101941247D01*
X206789160Y-101941247D02*
X206836779Y-102131723D01*
X206836779Y-102131723D02*
X206884398Y-102226961D01*
X206884398Y-102226961D02*
X206979636Y-102322200D01*
X206979636Y-102322200D02*
X207122493Y-102369819D01*
X207122493Y-102369819D02*
X207217731Y-102369819D01*
X207217731Y-102369819D02*
X207360588Y-102322200D01*
X207360588Y-102322200D02*
X207408207Y-102274580D01*
X207408207Y-102274580D02*
X207408207Y-101941247D01*
X207408207Y-101941247D02*
X207217731Y-101941247D01*
X207836779Y-102369819D02*
X207836779Y-101369819D01*
X207836779Y-101369819D02*
X208408207Y-102369819D01*
X208408207Y-102369819D02*
X208408207Y-101369819D01*
X208884398Y-102369819D02*
X208884398Y-101369819D01*
X208884398Y-101369819D02*
X209122493Y-101369819D01*
X209122493Y-101369819D02*
X209265350Y-101417438D01*
X209265350Y-101417438D02*
X209360588Y-101512676D01*
X209360588Y-101512676D02*
X209408207Y-101607914D01*
X209408207Y-101607914D02*
X209455826Y-101798390D01*
X209455826Y-101798390D02*
X209455826Y-101941247D01*
X209455826Y-101941247D02*
X209408207Y-102131723D01*
X209408207Y-102131723D02*
X209360588Y-102226961D01*
X209360588Y-102226961D02*
X209265350Y-102322200D01*
X209265350Y-102322200D02*
X209122493Y-102369819D01*
X209122493Y-102369819D02*
X208884398Y-102369819D01*
X207360588Y-79417438D02*
X207265350Y-79369819D01*
X207265350Y-79369819D02*
X207122493Y-79369819D01*
X207122493Y-79369819D02*
X206979636Y-79417438D01*
X206979636Y-79417438D02*
X206884398Y-79512676D01*
X206884398Y-79512676D02*
X206836779Y-79607914D01*
X206836779Y-79607914D02*
X206789160Y-79798390D01*
X206789160Y-79798390D02*
X206789160Y-79941247D01*
X206789160Y-79941247D02*
X206836779Y-80131723D01*
X206836779Y-80131723D02*
X206884398Y-80226961D01*
X206884398Y-80226961D02*
X206979636Y-80322200D01*
X206979636Y-80322200D02*
X207122493Y-80369819D01*
X207122493Y-80369819D02*
X207217731Y-80369819D01*
X207217731Y-80369819D02*
X207360588Y-80322200D01*
X207360588Y-80322200D02*
X207408207Y-80274580D01*
X207408207Y-80274580D02*
X207408207Y-79941247D01*
X207408207Y-79941247D02*
X207217731Y-79941247D01*
X207836779Y-80369819D02*
X207836779Y-79369819D01*
X207836779Y-79369819D02*
X208408207Y-80369819D01*
X208408207Y-80369819D02*
X208408207Y-79369819D01*
X208884398Y-80369819D02*
X208884398Y-79369819D01*
X208884398Y-79369819D02*
X209122493Y-79369819D01*
X209122493Y-79369819D02*
X209265350Y-79417438D01*
X209265350Y-79417438D02*
X209360588Y-79512676D01*
X209360588Y-79512676D02*
X209408207Y-79607914D01*
X209408207Y-79607914D02*
X209455826Y-79798390D01*
X209455826Y-79798390D02*
X209455826Y-79941247D01*
X209455826Y-79941247D02*
X209408207Y-80131723D01*
X209408207Y-80131723D02*
X209360588Y-80226961D01*
X209360588Y-80226961D02*
X209265350Y-80322200D01*
X209265350Y-80322200D02*
X209122493Y-80369819D01*
X209122493Y-80369819D02*
X208884398Y-80369819D01*
X159860588Y-94917438D02*
X159765350Y-94869819D01*
X159765350Y-94869819D02*
X159622493Y-94869819D01*
X159622493Y-94869819D02*
X159479636Y-94917438D01*
X159479636Y-94917438D02*
X159384398Y-95012676D01*
X159384398Y-95012676D02*
X159336779Y-95107914D01*
X159336779Y-95107914D02*
X159289160Y-95298390D01*
X159289160Y-95298390D02*
X159289160Y-95441247D01*
X159289160Y-95441247D02*
X159336779Y-95631723D01*
X159336779Y-95631723D02*
X159384398Y-95726961D01*
X159384398Y-95726961D02*
X159479636Y-95822200D01*
X159479636Y-95822200D02*
X159622493Y-95869819D01*
X159622493Y-95869819D02*
X159717731Y-95869819D01*
X159717731Y-95869819D02*
X159860588Y-95822200D01*
X159860588Y-95822200D02*
X159908207Y-95774580D01*
X159908207Y-95774580D02*
X159908207Y-95441247D01*
X159908207Y-95441247D02*
X159717731Y-95441247D01*
X160336779Y-95869819D02*
X160336779Y-94869819D01*
X160336779Y-94869819D02*
X160908207Y-95869819D01*
X160908207Y-95869819D02*
X160908207Y-94869819D01*
X161384398Y-95869819D02*
X161384398Y-94869819D01*
X161384398Y-94869819D02*
X161622493Y-94869819D01*
X161622493Y-94869819D02*
X161765350Y-94917438D01*
X161765350Y-94917438D02*
X161860588Y-95012676D01*
X161860588Y-95012676D02*
X161908207Y-95107914D01*
X161908207Y-95107914D02*
X161955826Y-95298390D01*
X161955826Y-95298390D02*
X161955826Y-95441247D01*
X161955826Y-95441247D02*
X161908207Y-95631723D01*
X161908207Y-95631723D02*
X161860588Y-95726961D01*
X161860588Y-95726961D02*
X161765350Y-95822200D01*
X161765350Y-95822200D02*
X161622493Y-95869819D01*
X161622493Y-95869819D02*
X161384398Y-95869819D01*
X205812969Y-106369819D02*
X205336779Y-106369819D01*
X205336779Y-106369819D02*
X205289160Y-106846009D01*
X205289160Y-106846009D02*
X205336779Y-106798390D01*
X205336779Y-106798390D02*
X205432017Y-106750771D01*
X205432017Y-106750771D02*
X205670112Y-106750771D01*
X205670112Y-106750771D02*
X205765350Y-106798390D01*
X205765350Y-106798390D02*
X205812969Y-106846009D01*
X205812969Y-106846009D02*
X205860588Y-106941247D01*
X205860588Y-106941247D02*
X205860588Y-107179342D01*
X205860588Y-107179342D02*
X205812969Y-107274580D01*
X205812969Y-107274580D02*
X205765350Y-107322200D01*
X205765350Y-107322200D02*
X205670112Y-107369819D01*
X205670112Y-107369819D02*
X205432017Y-107369819D01*
X205432017Y-107369819D02*
X205336779Y-107322200D01*
X205336779Y-107322200D02*
X205289160Y-107274580D01*
X206146303Y-106369819D02*
X206479636Y-107369819D01*
X206479636Y-107369819D02*
X206812969Y-106369819D01*
X207336779Y-106369819D02*
X207527255Y-106369819D01*
X207527255Y-106369819D02*
X207622493Y-106417438D01*
X207622493Y-106417438D02*
X207717731Y-106512676D01*
X207717731Y-106512676D02*
X207765350Y-106703152D01*
X207765350Y-106703152D02*
X207765350Y-107036485D01*
X207765350Y-107036485D02*
X207717731Y-107226961D01*
X207717731Y-107226961D02*
X207622493Y-107322200D01*
X207622493Y-107322200D02*
X207527255Y-107369819D01*
X207527255Y-107369819D02*
X207336779Y-107369819D01*
X207336779Y-107369819D02*
X207241541Y-107322200D01*
X207241541Y-107322200D02*
X207146303Y-107226961D01*
X207146303Y-107226961D02*
X207098684Y-107036485D01*
X207098684Y-107036485D02*
X207098684Y-106703152D01*
X207098684Y-106703152D02*
X207146303Y-106512676D01*
X207146303Y-106512676D02*
X207241541Y-106417438D01*
X207241541Y-106417438D02*
X207336779Y-106369819D01*
X208193922Y-106369819D02*
X208193922Y-107179342D01*
X208193922Y-107179342D02*
X208241541Y-107274580D01*
X208241541Y-107274580D02*
X208289160Y-107322200D01*
X208289160Y-107322200D02*
X208384398Y-107369819D01*
X208384398Y-107369819D02*
X208574874Y-107369819D01*
X208574874Y-107369819D02*
X208670112Y-107322200D01*
X208670112Y-107322200D02*
X208717731Y-107274580D01*
X208717731Y-107274580D02*
X208765350Y-107179342D01*
X208765350Y-107179342D02*
X208765350Y-106369819D01*
X209098684Y-106369819D02*
X209670112Y-106369819D01*
X209384398Y-107369819D02*
X209384398Y-106369819D01*
X167238095Y-70954819D02*
X167238095Y-71764342D01*
X167238095Y-71764342D02*
X167285714Y-71859580D01*
X167285714Y-71859580D02*
X167333333Y-71907200D01*
X167333333Y-71907200D02*
X167428571Y-71954819D01*
X167428571Y-71954819D02*
X167619047Y-71954819D01*
X167619047Y-71954819D02*
X167714285Y-71907200D01*
X167714285Y-71907200D02*
X167761904Y-71859580D01*
X167761904Y-71859580D02*
X167809523Y-71764342D01*
X167809523Y-71764342D02*
X167809523Y-70954819D01*
X168809523Y-71954819D02*
X168238095Y-71954819D01*
X168523809Y-71954819D02*
X168523809Y-70954819D01*
X168523809Y-70954819D02*
X168428571Y-71097676D01*
X168428571Y-71097676D02*
X168333333Y-71192914D01*
X168333333Y-71192914D02*
X168238095Y-71240533D01*
X190333333Y-72954819D02*
X189857143Y-72954819D01*
X189857143Y-72954819D02*
X189857143Y-71954819D01*
X190619048Y-72050057D02*
X190666667Y-72002438D01*
X190666667Y-72002438D02*
X190761905Y-71954819D01*
X190761905Y-71954819D02*
X191000000Y-71954819D01*
X191000000Y-71954819D02*
X191095238Y-72002438D01*
X191095238Y-72002438D02*
X191142857Y-72050057D01*
X191142857Y-72050057D02*
X191190476Y-72145295D01*
X191190476Y-72145295D02*
X191190476Y-72240533D01*
X191190476Y-72240533D02*
X191142857Y-72383390D01*
X191142857Y-72383390D02*
X190571429Y-72954819D01*
X190571429Y-72954819D02*
X191190476Y-72954819D01*
X189833333Y-95954819D02*
X189357143Y-95954819D01*
X189357143Y-95954819D02*
X189357143Y-94954819D01*
X190690476Y-95954819D02*
X190119048Y-95954819D01*
X190404762Y-95954819D02*
X190404762Y-94954819D01*
X190404762Y-94954819D02*
X190309524Y-95097676D01*
X190309524Y-95097676D02*
X190214286Y-95192914D01*
X190214286Y-95192914D02*
X190119048Y-95240533D01*
X213666666Y-96954819D02*
X213666666Y-97669104D01*
X213666666Y-97669104D02*
X213619047Y-97811961D01*
X213619047Y-97811961D02*
X213523809Y-97907200D01*
X213523809Y-97907200D02*
X213380952Y-97954819D01*
X213380952Y-97954819D02*
X213285714Y-97954819D01*
X214047619Y-96954819D02*
X214666666Y-96954819D01*
X214666666Y-96954819D02*
X214333333Y-97335771D01*
X214333333Y-97335771D02*
X214476190Y-97335771D01*
X214476190Y-97335771D02*
X214571428Y-97383390D01*
X214571428Y-97383390D02*
X214619047Y-97431009D01*
X214619047Y-97431009D02*
X214666666Y-97526247D01*
X214666666Y-97526247D02*
X214666666Y-97764342D01*
X214666666Y-97764342D02*
X214619047Y-97859580D01*
X214619047Y-97859580D02*
X214571428Y-97907200D01*
X214571428Y-97907200D02*
X214476190Y-97954819D01*
X214476190Y-97954819D02*
X214190476Y-97954819D01*
X214190476Y-97954819D02*
X214095238Y-97907200D01*
X214095238Y-97907200D02*
X214047619Y-97859580D01*
X213671666Y-88454819D02*
X213671666Y-89169104D01*
X213671666Y-89169104D02*
X213624047Y-89311961D01*
X213624047Y-89311961D02*
X213528809Y-89407200D01*
X213528809Y-89407200D02*
X213385952Y-89454819D01*
X213385952Y-89454819D02*
X213290714Y-89454819D01*
X214100238Y-88550057D02*
X214147857Y-88502438D01*
X214147857Y-88502438D02*
X214243095Y-88454819D01*
X214243095Y-88454819D02*
X214481190Y-88454819D01*
X214481190Y-88454819D02*
X214576428Y-88502438D01*
X214576428Y-88502438D02*
X214624047Y-88550057D01*
X214624047Y-88550057D02*
X214671666Y-88645295D01*
X214671666Y-88645295D02*
X214671666Y-88740533D01*
X214671666Y-88740533D02*
X214624047Y-88883390D01*
X214624047Y-88883390D02*
X214052619Y-89454819D01*
X214052619Y-89454819D02*
X214671666Y-89454819D01*
X153071666Y-85954819D02*
X153071666Y-86669104D01*
X153071666Y-86669104D02*
X153024047Y-86811961D01*
X153024047Y-86811961D02*
X152928809Y-86907200D01*
X152928809Y-86907200D02*
X152785952Y-86954819D01*
X152785952Y-86954819D02*
X152690714Y-86954819D01*
X154071666Y-86954819D02*
X153500238Y-86954819D01*
X153785952Y-86954819D02*
X153785952Y-85954819D01*
X153785952Y-85954819D02*
X153690714Y-86097676D01*
X153690714Y-86097676D02*
X153595476Y-86192914D01*
X153595476Y-86192914D02*
X153500238Y-86240533D01*
X175569819Y-81738094D02*
X174569819Y-81738094D01*
X174569819Y-81738094D02*
X174569819Y-81499999D01*
X174569819Y-81499999D02*
X174617438Y-81357142D01*
X174617438Y-81357142D02*
X174712676Y-81261904D01*
X174712676Y-81261904D02*
X174807914Y-81214285D01*
X174807914Y-81214285D02*
X174998390Y-81166666D01*
X174998390Y-81166666D02*
X175141247Y-81166666D01*
X175141247Y-81166666D02*
X175331723Y-81214285D01*
X175331723Y-81214285D02*
X175426961Y-81261904D01*
X175426961Y-81261904D02*
X175522200Y-81357142D01*
X175522200Y-81357142D02*
X175569819Y-81499999D01*
X175569819Y-81499999D02*
X175569819Y-81738094D01*
X174665057Y-80785713D02*
X174617438Y-80738094D01*
X174617438Y-80738094D02*
X174569819Y-80642856D01*
X174569819Y-80642856D02*
X174569819Y-80404761D01*
X174569819Y-80404761D02*
X174617438Y-80309523D01*
X174617438Y-80309523D02*
X174665057Y-80261904D01*
X174665057Y-80261904D02*
X174760295Y-80214285D01*
X174760295Y-80214285D02*
X174855533Y-80214285D01*
X174855533Y-80214285D02*
X174998390Y-80261904D01*
X174998390Y-80261904D02*
X175569819Y-80833332D01*
X175569819Y-80833332D02*
X175569819Y-80214285D01*
X177154819Y-87611904D02*
X176154819Y-87611904D01*
X177154819Y-87040476D02*
X176583390Y-87469047D01*
X176154819Y-87040476D02*
X176726247Y-87611904D01*
X174812496Y-104613094D02*
X173812496Y-104613094D01*
X173812496Y-104613094D02*
X173812496Y-104374999D01*
X173812496Y-104374999D02*
X173860115Y-104232142D01*
X173860115Y-104232142D02*
X173955353Y-104136904D01*
X173955353Y-104136904D02*
X174050591Y-104089285D01*
X174050591Y-104089285D02*
X174241067Y-104041666D01*
X174241067Y-104041666D02*
X174383924Y-104041666D01*
X174383924Y-104041666D02*
X174574400Y-104089285D01*
X174574400Y-104089285D02*
X174669638Y-104136904D01*
X174669638Y-104136904D02*
X174764877Y-104232142D01*
X174764877Y-104232142D02*
X174812496Y-104374999D01*
X174812496Y-104374999D02*
X174812496Y-104613094D01*
X174812496Y-103089285D02*
X174812496Y-103660713D01*
X174812496Y-103374999D02*
X173812496Y-103374999D01*
X173812496Y-103374999D02*
X173955353Y-103470237D01*
X173955353Y-103470237D02*
X174050591Y-103565475D01*
X174050591Y-103565475D02*
X174098210Y-103660713D01*
X176397496Y-110486904D02*
X175397496Y-110486904D01*
X176397496Y-109915476D02*
X175826067Y-110344047D01*
X175397496Y-109915476D02*
X175968924Y-110486904D01*
X201833333Y-77359580D02*
X201785714Y-77407200D01*
X201785714Y-77407200D02*
X201642857Y-77454819D01*
X201642857Y-77454819D02*
X201547619Y-77454819D01*
X201547619Y-77454819D02*
X201404762Y-77407200D01*
X201404762Y-77407200D02*
X201309524Y-77311961D01*
X201309524Y-77311961D02*
X201261905Y-77216723D01*
X201261905Y-77216723D02*
X201214286Y-77026247D01*
X201214286Y-77026247D02*
X201214286Y-76883390D01*
X201214286Y-76883390D02*
X201261905Y-76692914D01*
X201261905Y-76692914D02*
X201309524Y-76597676D01*
X201309524Y-76597676D02*
X201404762Y-76502438D01*
X201404762Y-76502438D02*
X201547619Y-76454819D01*
X201547619Y-76454819D02*
X201642857Y-76454819D01*
X201642857Y-76454819D02*
X201785714Y-76502438D01*
X201785714Y-76502438D02*
X201833333Y-76550057D01*
X202690476Y-76788152D02*
X202690476Y-77454819D01*
X202452381Y-76407200D02*
X202214286Y-77121485D01*
X202214286Y-77121485D02*
X202833333Y-77121485D01*
X200833333Y-100359580D02*
X200785714Y-100407200D01*
X200785714Y-100407200D02*
X200642857Y-100454819D01*
X200642857Y-100454819D02*
X200547619Y-100454819D01*
X200547619Y-100454819D02*
X200404762Y-100407200D01*
X200404762Y-100407200D02*
X200309524Y-100311961D01*
X200309524Y-100311961D02*
X200261905Y-100216723D01*
X200261905Y-100216723D02*
X200214286Y-100026247D01*
X200214286Y-100026247D02*
X200214286Y-99883390D01*
X200214286Y-99883390D02*
X200261905Y-99692914D01*
X200261905Y-99692914D02*
X200309524Y-99597676D01*
X200309524Y-99597676D02*
X200404762Y-99502438D01*
X200404762Y-99502438D02*
X200547619Y-99454819D01*
X200547619Y-99454819D02*
X200642857Y-99454819D01*
X200642857Y-99454819D02*
X200785714Y-99502438D01*
X200785714Y-99502438D02*
X200833333Y-99550057D01*
X201166667Y-99454819D02*
X201785714Y-99454819D01*
X201785714Y-99454819D02*
X201452381Y-99835771D01*
X201452381Y-99835771D02*
X201595238Y-99835771D01*
X201595238Y-99835771D02*
X201690476Y-99883390D01*
X201690476Y-99883390D02*
X201738095Y-99931009D01*
X201738095Y-99931009D02*
X201785714Y-100026247D01*
X201785714Y-100026247D02*
X201785714Y-100264342D01*
X201785714Y-100264342D02*
X201738095Y-100359580D01*
X201738095Y-100359580D02*
X201690476Y-100407200D01*
X201690476Y-100407200D02*
X201595238Y-100454819D01*
X201595238Y-100454819D02*
X201309524Y-100454819D01*
X201309524Y-100454819D02*
X201214286Y-100407200D01*
X201214286Y-100407200D02*
X201166667Y-100359580D01*
X158333333Y-84609580D02*
X158285714Y-84657200D01*
X158285714Y-84657200D02*
X158142857Y-84704819D01*
X158142857Y-84704819D02*
X158047619Y-84704819D01*
X158047619Y-84704819D02*
X157904762Y-84657200D01*
X157904762Y-84657200D02*
X157809524Y-84561961D01*
X157809524Y-84561961D02*
X157761905Y-84466723D01*
X157761905Y-84466723D02*
X157714286Y-84276247D01*
X157714286Y-84276247D02*
X157714286Y-84133390D01*
X157714286Y-84133390D02*
X157761905Y-83942914D01*
X157761905Y-83942914D02*
X157809524Y-83847676D01*
X157809524Y-83847676D02*
X157904762Y-83752438D01*
X157904762Y-83752438D02*
X158047619Y-83704819D01*
X158047619Y-83704819D02*
X158142857Y-83704819D01*
X158142857Y-83704819D02*
X158285714Y-83752438D01*
X158285714Y-83752438D02*
X158333333Y-83800057D01*
X158714286Y-83800057D02*
X158761905Y-83752438D01*
X158761905Y-83752438D02*
X158857143Y-83704819D01*
X158857143Y-83704819D02*
X159095238Y-83704819D01*
X159095238Y-83704819D02*
X159190476Y-83752438D01*
X159190476Y-83752438D02*
X159238095Y-83800057D01*
X159238095Y-83800057D02*
X159285714Y-83895295D01*
X159285714Y-83895295D02*
X159285714Y-83990533D01*
X159285714Y-83990533D02*
X159238095Y-84133390D01*
X159238095Y-84133390D02*
X158666667Y-84704819D01*
X158666667Y-84704819D02*
X159285714Y-84704819D01*
X159333333Y-113359580D02*
X159285714Y-113407200D01*
X159285714Y-113407200D02*
X159142857Y-113454819D01*
X159142857Y-113454819D02*
X159047619Y-113454819D01*
X159047619Y-113454819D02*
X158904762Y-113407200D01*
X158904762Y-113407200D02*
X158809524Y-113311961D01*
X158809524Y-113311961D02*
X158761905Y-113216723D01*
X158761905Y-113216723D02*
X158714286Y-113026247D01*
X158714286Y-113026247D02*
X158714286Y-112883390D01*
X158714286Y-112883390D02*
X158761905Y-112692914D01*
X158761905Y-112692914D02*
X158809524Y-112597676D01*
X158809524Y-112597676D02*
X158904762Y-112502438D01*
X158904762Y-112502438D02*
X159047619Y-112454819D01*
X159047619Y-112454819D02*
X159142857Y-112454819D01*
X159142857Y-112454819D02*
X159285714Y-112502438D01*
X159285714Y-112502438D02*
X159333333Y-112550057D01*
X160285714Y-113454819D02*
X159714286Y-113454819D01*
X160000000Y-113454819D02*
X160000000Y-112454819D01*
X160000000Y-112454819D02*
X159904762Y-112597676D01*
X159904762Y-112597676D02*
X159809524Y-112692914D01*
X159809524Y-112692914D02*
X159714286Y-112740533D01*
X167238095Y-93954819D02*
X167238095Y-94764342D01*
X167238095Y-94764342D02*
X167285714Y-94859580D01*
X167285714Y-94859580D02*
X167333333Y-94907200D01*
X167333333Y-94907200D02*
X167428571Y-94954819D01*
X167428571Y-94954819D02*
X167619047Y-94954819D01*
X167619047Y-94954819D02*
X167714285Y-94907200D01*
X167714285Y-94907200D02*
X167761904Y-94859580D01*
X167761904Y-94859580D02*
X167809523Y-94764342D01*
X167809523Y-94764342D02*
X167809523Y-93954819D01*
X168238095Y-94050057D02*
X168285714Y-94002438D01*
X168285714Y-94002438D02*
X168380952Y-93954819D01*
X168380952Y-93954819D02*
X168619047Y-93954819D01*
X168619047Y-93954819D02*
X168714285Y-94002438D01*
X168714285Y-94002438D02*
X168761904Y-94050057D01*
X168761904Y-94050057D02*
X168809523Y-94145295D01*
X168809523Y-94145295D02*
X168809523Y-94240533D01*
X168809523Y-94240533D02*
X168761904Y-94383390D01*
X168761904Y-94383390D02*
X168190476Y-94954819D01*
X168190476Y-94954819D02*
X168809523Y-94954819D01*
D11*
%TO.C,U1*%
X162800000Y-83950000D02*
X163750000Y-83950000D01*
X173200000Y-83950000D02*
X172250000Y-83950000D01*
X162800000Y-82585000D02*
X162800000Y-83950000D01*
X173200000Y-82585000D02*
X173200000Y-83950000D01*
X163790000Y-86775000D02*
X163320000Y-87115000D01*
X163320000Y-86435000D01*
X163790000Y-86775000D01*
G36*
X163790000Y-86775000D02*
G01*
X163320000Y-87115000D01*
X163320000Y-86435000D01*
X163790000Y-86775000D01*
G37*
%TO.C,L2*%
X197620000Y-81000000D02*
G75*
G02*
X183180000Y-81000000I-7220000J0D01*
G01*
X183180000Y-81000000D02*
G75*
G02*
X197620000Y-81000000I7220000J0D01*
G01*
%TO.C,L1*%
X197220000Y-104250000D02*
G75*
G02*
X182780000Y-104250000I-7220000J0D01*
G01*
X182780000Y-104250000D02*
G75*
G02*
X197220000Y-104250000I7220000J0D01*
G01*
%TO.C,J3*%
X215180084Y-108565937D02*
G75*
G02*
X212820000Y-108566000I-1180084J1565937D01*
G01*
X215286364Y-108479873D02*
G75*
G02*
X215180000Y-108566000I-1285964J1479373D01*
G01*
X212820372Y-108566102D02*
G75*
G02*
X212714001Y-108479999I1180228J1566802D01*
G01*
X215410097Y-108362286D02*
G75*
G02*
X215286000Y-108480000I-1409897J1362086D01*
G01*
X212714072Y-108479707D02*
G75*
G02*
X212590001Y-108361999I1286128J1479907D01*
G01*
X215523341Y-108233928D02*
G75*
G02*
X215410000Y-108362000I-1523441J1234028D01*
G01*
X212589349Y-108362130D02*
G75*
G02*
X212476001Y-108233999I1411251J1362630D01*
G01*
X215625751Y-108096479D02*
G75*
G02*
X215523999Y-108233999I-1625451J1096279D01*
G01*
X212476706Y-108233457D02*
G75*
G02*
X212374997Y-108096002I1523094J1233357D01*
G01*
X215730826Y-107920652D02*
G75*
G02*
X215643999Y-108067999I-1730626J920552D01*
G01*
X212355857Y-108068362D02*
G75*
G02*
X212269000Y-107921000I1644143J1068362D01*
G01*
X215853920Y-107638712D02*
G75*
G02*
X215777002Y-107829001I-1854220J638812D01*
G01*
X212222950Y-107829295D02*
G75*
G02*
X212146002Y-107638999I1777350J829395D01*
G01*
X215960944Y-107000487D02*
G75*
G02*
X215894000Y-107508000I-1960944J487D01*
G01*
X215893473Y-106493681D02*
G75*
G02*
X215959999Y-107001000I-1893473J-506319D01*
G01*
X212106785Y-107507285D02*
G75*
G02*
X212040000Y-107000000I1893215J507285D01*
G01*
X212039315Y-107000479D02*
G75*
G02*
X212105996Y-106492999I1960785J479D01*
G01*
X215777259Y-106172694D02*
G75*
G02*
X215854000Y-106363000I-1777259J-827306D01*
G01*
X212146185Y-106362283D02*
G75*
G02*
X212223000Y-106172000I1853815J-637717D01*
G01*
X215644317Y-105933630D02*
G75*
G02*
X215730997Y-106081002I-1644917J-1066670D01*
G01*
X212269261Y-106080344D02*
G75*
G02*
X212355999Y-105932999I1730939J-919756D01*
G01*
X215524377Y-105767452D02*
G75*
G02*
X215626000Y-105905000I-1524377J-1232548D01*
G01*
X212374336Y-105904517D02*
G75*
G02*
X212476000Y-105767000I1625664J-1095483D01*
G01*
X215410738Y-105638867D02*
G75*
G02*
X215524001Y-105767000I-1410838J-1361233D01*
G01*
X212476747Y-105767069D02*
G75*
G02*
X212590000Y-105639000I1523153J-1232831D01*
G01*
X215287012Y-105521202D02*
G75*
G02*
X215411000Y-105639000I-1286912J-1478698D01*
G01*
X212589990Y-105638710D02*
G75*
G02*
X212714000Y-105520999I1410110J-1361390D01*
G01*
X215180695Y-105434826D02*
G75*
G02*
X215287000Y-105521000I-1180295J-1564674D01*
G01*
X212713706Y-105521125D02*
G75*
G02*
X212820001Y-105435001I1286194J-1478775D01*
G01*
X212820878Y-105434339D02*
G75*
G02*
X215180000Y-105435000I1179122J-1565661D01*
G01*
X214572619Y-103875422D02*
G75*
G02*
X213426000Y-103875000I-572619J1875422D01*
G01*
X215875422Y-101427381D02*
G75*
G02*
X215875000Y-102574000I-1875422J-572619D01*
G01*
X212125643Y-102573049D02*
G75*
G02*
X212040000Y-102000000I1874363J573051D01*
G01*
X212039393Y-102033500D02*
G75*
G02*
X212125000Y-101426000I1960607J33500D01*
G01*
X213427381Y-100124578D02*
G75*
G02*
X214574000Y-100125000I572619J-1875415D01*
G01*
X218120000Y-109620000D02*
X210080000Y-109620000D01*
X213500000Y-108836000D02*
X213500000Y-109620000D01*
X214500000Y-108836000D02*
X214500000Y-109620000D01*
X215248000Y-108487000D02*
X215248000Y-108487000D01*
X212200000Y-107670000D02*
X212200000Y-109620000D01*
X212752000Y-105514000D02*
X212752000Y-105514000D01*
X212200000Y-103880000D02*
X212200000Y-106331000D01*
X213500000Y-103880000D02*
X213500000Y-105165000D01*
X214500000Y-103880000D02*
X214500000Y-105165000D01*
X210080000Y-98880000D02*
X210080000Y-109620000D01*
X212200000Y-98880000D02*
X212200000Y-100120000D01*
X213500000Y-98880000D02*
X213500000Y-100120000D01*
X214500000Y-98880000D02*
X214500000Y-100120000D01*
X218120000Y-98880000D02*
X218120000Y-109620000D01*
X218120000Y-98880000D02*
X210080000Y-98880000D01*
X209840000Y-98640000D02*
X209840000Y-100590000D01*
X212030000Y-98640000D02*
X209840000Y-98640000D01*
%TO.C,J2*%
X211935000Y-76390000D02*
X209745000Y-76390000D01*
X209745000Y-76390000D02*
X209745000Y-78340000D01*
X218025000Y-76630000D02*
X209985000Y-76630000D01*
X218025000Y-76630000D02*
X218025000Y-87370000D01*
X214405000Y-76630000D02*
X214405000Y-77870000D01*
X213405000Y-76630000D02*
X213405000Y-77870000D01*
X212105000Y-76630000D02*
X212105000Y-77870000D01*
X209985000Y-76630000D02*
X209985000Y-87370000D01*
X214405000Y-81630000D02*
X214405000Y-82915000D01*
X213405000Y-81630000D02*
X213405000Y-82915000D01*
X212105000Y-81630000D02*
X212105000Y-84081000D01*
X212657000Y-83264000D02*
X212657000Y-83264000D01*
X212105000Y-85420000D02*
X212105000Y-87370000D01*
X215153000Y-86237000D02*
X215153000Y-86237000D01*
X214405000Y-86586000D02*
X214405000Y-87370000D01*
X213405000Y-86586000D02*
X213405000Y-87370000D01*
X218025000Y-87370000D02*
X209985000Y-87370000D01*
X213332381Y-77874578D02*
G75*
G02*
X214479000Y-77875000I572619J-1875415D01*
G01*
X211944393Y-79783500D02*
G75*
G02*
X212030000Y-79176000I1960607J33500D01*
G01*
X212030643Y-80323049D02*
G75*
G02*
X211945000Y-79750000I1874363J573051D01*
G01*
X215780422Y-79177381D02*
G75*
G02*
X215780000Y-80324000I-1875422J-572619D01*
G01*
X214477619Y-81625422D02*
G75*
G02*
X213331000Y-81625000I-572619J1875422D01*
G01*
X212725878Y-83184339D02*
G75*
G02*
X215085000Y-83185000I1179122J-1565661D01*
G01*
X212618706Y-83271125D02*
G75*
G02*
X212725001Y-83185001I1286194J-1478775D01*
G01*
X215085695Y-83184826D02*
G75*
G02*
X215192000Y-83271000I-1180295J-1564674D01*
G01*
X212494990Y-83388710D02*
G75*
G02*
X212619000Y-83270999I1410110J-1361390D01*
G01*
X215192012Y-83271202D02*
G75*
G02*
X215316000Y-83389000I-1286912J-1478698D01*
G01*
X212381747Y-83517069D02*
G75*
G02*
X212495000Y-83389000I1523153J-1232831D01*
G01*
X215315738Y-83388867D02*
G75*
G02*
X215429001Y-83517000I-1410838J-1361233D01*
G01*
X212279336Y-83654517D02*
G75*
G02*
X212381000Y-83517000I1625664J-1095483D01*
G01*
X215429377Y-83517452D02*
G75*
G02*
X215531000Y-83655000I-1524377J-1232548D01*
G01*
X212174261Y-83830344D02*
G75*
G02*
X212260999Y-83682999I1730939J-919756D01*
G01*
X215549317Y-83683630D02*
G75*
G02*
X215635997Y-83831002I-1644917J-1066670D01*
G01*
X212051185Y-84112283D02*
G75*
G02*
X212128000Y-83922000I1853815J-637717D01*
G01*
X215682259Y-83922694D02*
G75*
G02*
X215759000Y-84113000I-1777259J-827306D01*
G01*
X211944315Y-84750479D02*
G75*
G02*
X212010996Y-84242999I1960785J479D01*
G01*
X212011785Y-85257285D02*
G75*
G02*
X211945000Y-84750000I1893215J507285D01*
G01*
X215798473Y-84243681D02*
G75*
G02*
X215864999Y-84751000I-1893473J-506319D01*
G01*
X215865944Y-84750487D02*
G75*
G02*
X215799000Y-85258000I-1960944J487D01*
G01*
X212127950Y-85579295D02*
G75*
G02*
X212051002Y-85388999I1777350J829395D01*
G01*
X215758920Y-85388712D02*
G75*
G02*
X215682002Y-85579001I-1854220J638812D01*
G01*
X212260857Y-85818362D02*
G75*
G02*
X212174000Y-85671000I1644143J1068362D01*
G01*
X215635826Y-85670652D02*
G75*
G02*
X215548999Y-85817999I-1730626J920552D01*
G01*
X212381706Y-85983457D02*
G75*
G02*
X212279997Y-85846002I1523094J1233357D01*
G01*
X215530751Y-85846479D02*
G75*
G02*
X215428999Y-85983999I-1625451J1096279D01*
G01*
X212494349Y-86112130D02*
G75*
G02*
X212381001Y-85983999I1411251J1362630D01*
G01*
X215428341Y-85983928D02*
G75*
G02*
X215315000Y-86112000I-1523441J1234028D01*
G01*
X212619072Y-86229707D02*
G75*
G02*
X212495001Y-86111999I1286128J1479907D01*
G01*
X215315097Y-86112286D02*
G75*
G02*
X215191000Y-86230000I-1409897J1362086D01*
G01*
X212725372Y-86316102D02*
G75*
G02*
X212619001Y-86229999I1180228J1566802D01*
G01*
X215191364Y-86229873D02*
G75*
G02*
X215085000Y-86316000I-1285964J1479373D01*
G01*
X215085084Y-86315937D02*
G75*
G02*
X212725000Y-86316000I-1180084J1565937D01*
G01*
%TO.C,J1*%
X153319916Y-88684063D02*
G75*
G02*
X155680000Y-88684000I1180084J-1565937D01*
G01*
X153213636Y-88770127D02*
G75*
G02*
X153320000Y-88684000I1285964J-1479373D01*
G01*
X155679628Y-88683898D02*
G75*
G02*
X155785999Y-88770001I-1180228J-1566802D01*
G01*
X153089903Y-88887714D02*
G75*
G02*
X153214000Y-88770000I1409897J-1362086D01*
G01*
X155785928Y-88770293D02*
G75*
G02*
X155909999Y-88888001I-1286128J-1479907D01*
G01*
X152976659Y-89016072D02*
G75*
G02*
X153090000Y-88888000I1523441J-1234028D01*
G01*
X155910651Y-88887870D02*
G75*
G02*
X156023999Y-89016001I-1411251J-1362630D01*
G01*
X152874249Y-89153521D02*
G75*
G02*
X152976001Y-89016001I1625451J-1096279D01*
G01*
X156023294Y-89016543D02*
G75*
G02*
X156125003Y-89153998I-1523094J-1233357D01*
G01*
X152769174Y-89329348D02*
G75*
G02*
X152856001Y-89182001I1730626J-920552D01*
G01*
X156144143Y-89181638D02*
G75*
G02*
X156231000Y-89329000I-1644143J-1068362D01*
G01*
X152646080Y-89611288D02*
G75*
G02*
X152722998Y-89420999I1854220J-638812D01*
G01*
X156277050Y-89420705D02*
G75*
G02*
X156353998Y-89611001I-1777350J-829395D01*
G01*
X152539056Y-90249513D02*
G75*
G02*
X152606000Y-89742000I1960944J-487D01*
G01*
X152606527Y-90756319D02*
G75*
G02*
X152540001Y-90249000I1893473J506319D01*
G01*
X156393215Y-89742715D02*
G75*
G02*
X156460000Y-90250000I-1893215J-507285D01*
G01*
X156460685Y-90249521D02*
G75*
G02*
X156394004Y-90757001I-1960785J-479D01*
G01*
X152722741Y-91077306D02*
G75*
G02*
X152646000Y-90887000I1777259J827306D01*
G01*
X156353815Y-90887717D02*
G75*
G02*
X156277000Y-91078000I-1853815J637717D01*
G01*
X152855683Y-91316370D02*
G75*
G02*
X152769003Y-91168998I1644917J1066670D01*
G01*
X156230739Y-91169656D02*
G75*
G02*
X156144001Y-91317001I-1730939J919756D01*
G01*
X152975623Y-91482548D02*
G75*
G02*
X152874000Y-91345000I1524377J1232548D01*
G01*
X156125664Y-91345483D02*
G75*
G02*
X156024000Y-91483000I-1625664J1095483D01*
G01*
X153089262Y-91611133D02*
G75*
G02*
X152975999Y-91483000I1410838J1361233D01*
G01*
X156023253Y-91482931D02*
G75*
G02*
X155910000Y-91611000I-1523153J1232831D01*
G01*
X153212988Y-91728798D02*
G75*
G02*
X153089000Y-91611000I1286912J1478698D01*
G01*
X155910010Y-91611290D02*
G75*
G02*
X155786000Y-91729001I-1410110J1361390D01*
G01*
X153319305Y-91815174D02*
G75*
G02*
X153213000Y-91729000I1180295J1564674D01*
G01*
X155786294Y-91728875D02*
G75*
G02*
X155679999Y-91814999I-1286194J1478775D01*
G01*
X155679122Y-91815661D02*
G75*
G02*
X153320000Y-91815000I-1179122J1565661D01*
G01*
X153927381Y-93374578D02*
G75*
G02*
X155074000Y-93375000I572619J-1875422D01*
G01*
X152624578Y-95822619D02*
G75*
G02*
X152625000Y-94676000I1875422J572619D01*
G01*
X156374357Y-94676951D02*
G75*
G02*
X156460000Y-95250000I-1874363J-573051D01*
G01*
X156460607Y-95216500D02*
G75*
G02*
X156375000Y-95824000I-1960607J-33500D01*
G01*
X155072619Y-97125422D02*
G75*
G02*
X153926000Y-97125000I-572619J1875415D01*
G01*
X150380000Y-87630000D02*
X158420000Y-87630000D01*
X155000000Y-88414000D02*
X155000000Y-87630000D01*
X154000000Y-88414000D02*
X154000000Y-87630000D01*
X153252000Y-88763000D02*
X153252000Y-88763000D01*
X156300000Y-89580000D02*
X156300000Y-87630000D01*
X155748000Y-91736000D02*
X155748000Y-91736000D01*
X156300000Y-93370000D02*
X156300000Y-90919000D01*
X155000000Y-93370000D02*
X155000000Y-92085000D01*
X154000000Y-93370000D02*
X154000000Y-92085000D01*
X158420000Y-98370000D02*
X158420000Y-87630000D01*
X156300000Y-98370000D02*
X156300000Y-97130000D01*
X155000000Y-98370000D02*
X155000000Y-97130000D01*
X154000000Y-98370000D02*
X154000000Y-97130000D01*
X150380000Y-98370000D02*
X150380000Y-87630000D01*
X150380000Y-98370000D02*
X158420000Y-98370000D01*
X158660000Y-98610000D02*
X158660000Y-96660000D01*
X156470000Y-98610000D02*
X158660000Y-98610000D01*
%TO.C,D2*%
X178900000Y-76090000D02*
X178900000Y-76120000D01*
X181685000Y-76120000D02*
X176115000Y-76120000D01*
X176115000Y-76120000D02*
X176115000Y-85880000D01*
X176115000Y-84212000D02*
X181685000Y-84212000D01*
X176115000Y-84332000D02*
X181685000Y-84332000D01*
X176115000Y-84452000D02*
X181685000Y-84452000D01*
X181685000Y-85880000D02*
X181685000Y-76120000D01*
X176115000Y-85880000D02*
X181685000Y-85880000D01*
X178900000Y-85910000D02*
X178900000Y-85880000D01*
%TO.C,D1*%
X178142677Y-108785000D02*
X178142677Y-108755000D01*
X175357677Y-108755000D02*
X180927677Y-108755000D01*
X180927677Y-108755000D02*
X180927677Y-98995000D01*
X175357677Y-107327000D02*
X180927677Y-107327000D01*
X175357677Y-107207000D02*
X180927677Y-107207000D01*
X175357677Y-107087000D02*
X180927677Y-107087000D01*
X175357677Y-98995000D02*
X175357677Y-108755000D01*
X180927677Y-98995000D02*
X175357677Y-98995000D01*
X178142677Y-98965000D02*
X178142677Y-98995000D01*
%TO.C,C4*%
X200061000Y-84432621D02*
X200061000Y-83802621D01*
X199746000Y-84117621D02*
X200376000Y-84117621D01*
X198670000Y-80932380D02*
X205130000Y-80932380D01*
X198670000Y-80892380D02*
X205130000Y-80892380D01*
X198670000Y-80852380D02*
X205130000Y-80852380D01*
X198672000Y-80812380D02*
X205128000Y-80812380D01*
X198673000Y-80772380D02*
X205127000Y-80772380D01*
X198676000Y-80732380D02*
X205124000Y-80732380D01*
X198678000Y-80692380D02*
X200860000Y-80692380D01*
X202940000Y-80692380D02*
X205122000Y-80692380D01*
X198682000Y-80652380D02*
X200860000Y-80652380D01*
X202940000Y-80652380D02*
X205118000Y-80652380D01*
X198685000Y-80612380D02*
X200860000Y-80612380D01*
X202940000Y-80612380D02*
X205115000Y-80612380D01*
X198689000Y-80572380D02*
X200860000Y-80572380D01*
X202940000Y-80572380D02*
X205111000Y-80572380D01*
X198694000Y-80532380D02*
X200860000Y-80532380D01*
X202940000Y-80532380D02*
X205106000Y-80532380D01*
X198699000Y-80492380D02*
X200860000Y-80492380D01*
X202940000Y-80492380D02*
X205101000Y-80492380D01*
X198705000Y-80452380D02*
X200860000Y-80452380D01*
X202940000Y-80452380D02*
X205095000Y-80452380D01*
X198711000Y-80412380D02*
X200860000Y-80412380D01*
X202940000Y-80412380D02*
X205089000Y-80412380D01*
X198718000Y-80372380D02*
X200860000Y-80372380D01*
X202940000Y-80372380D02*
X205082000Y-80372380D01*
X198725000Y-80332380D02*
X200860000Y-80332380D01*
X202940000Y-80332380D02*
X205075000Y-80332380D01*
X198733000Y-80292380D02*
X200860000Y-80292380D01*
X202940000Y-80292380D02*
X205067000Y-80292380D01*
X198741000Y-80252380D02*
X200860000Y-80252380D01*
X202940000Y-80252380D02*
X205059000Y-80252380D01*
X198750000Y-80211380D02*
X200860000Y-80211380D01*
X202940000Y-80211380D02*
X205050000Y-80211380D01*
X198759000Y-80171380D02*
X200860000Y-80171380D01*
X202940000Y-80171380D02*
X205041000Y-80171380D01*
X198769000Y-80131380D02*
X200860000Y-80131380D01*
X202940000Y-80131380D02*
X205031000Y-80131380D01*
X198779000Y-80091380D02*
X200860000Y-80091380D01*
X202940000Y-80091380D02*
X205021000Y-80091380D01*
X198790000Y-80051380D02*
X200860000Y-80051380D01*
X202940000Y-80051380D02*
X205010000Y-80051380D01*
X198802000Y-80011380D02*
X200860000Y-80011380D01*
X202940000Y-80011380D02*
X204998000Y-80011380D01*
X198814000Y-79971380D02*
X200860000Y-79971380D01*
X202940000Y-79971380D02*
X204986000Y-79971380D01*
X198826000Y-79931380D02*
X200860000Y-79931380D01*
X202940000Y-79931380D02*
X204974000Y-79931380D01*
X198839000Y-79891380D02*
X200860000Y-79891380D01*
X202940000Y-79891380D02*
X204961000Y-79891380D01*
X198853000Y-79851380D02*
X200860000Y-79851380D01*
X202940000Y-79851380D02*
X204947000Y-79851380D01*
X198867000Y-79811380D02*
X200860000Y-79811380D01*
X202940000Y-79811380D02*
X204933000Y-79811380D01*
X198882000Y-79771380D02*
X200860000Y-79771380D01*
X202940000Y-79771380D02*
X204918000Y-79771380D01*
X198898000Y-79731380D02*
X200860000Y-79731380D01*
X202940000Y-79731380D02*
X204902000Y-79731380D01*
X198914000Y-79691380D02*
X200860000Y-79691380D01*
X202940000Y-79691380D02*
X204886000Y-79691380D01*
X198930000Y-79651380D02*
X200860000Y-79651380D01*
X202940000Y-79651380D02*
X204870000Y-79651380D01*
X198948000Y-79611380D02*
X200860000Y-79611380D01*
X202940000Y-79611380D02*
X204852000Y-79611380D01*
X198966000Y-79571380D02*
X200860000Y-79571380D01*
X202940000Y-79571380D02*
X204834000Y-79571380D01*
X198984000Y-79531380D02*
X200860000Y-79531380D01*
X202940000Y-79531380D02*
X204816000Y-79531380D01*
X199004000Y-79491380D02*
X200860000Y-79491380D01*
X202940000Y-79491380D02*
X204796000Y-79491380D01*
X199024000Y-79451380D02*
X200860000Y-79451380D01*
X202940000Y-79451380D02*
X204776000Y-79451380D01*
X199044000Y-79411380D02*
X200860000Y-79411380D01*
X202940000Y-79411380D02*
X204756000Y-79411380D01*
X199066000Y-79371380D02*
X200860000Y-79371380D01*
X202940000Y-79371380D02*
X204734000Y-79371380D01*
X199088000Y-79331380D02*
X200860000Y-79331380D01*
X202940000Y-79331380D02*
X204712000Y-79331380D01*
X199110000Y-79291380D02*
X200860000Y-79291380D01*
X202940000Y-79291380D02*
X204690000Y-79291380D01*
X199134000Y-79251380D02*
X200860000Y-79251380D01*
X202940000Y-79251380D02*
X204666000Y-79251380D01*
X199158000Y-79211380D02*
X200860000Y-79211380D01*
X202940000Y-79211380D02*
X204642000Y-79211380D01*
X199184000Y-79171380D02*
X200860000Y-79171380D01*
X202940000Y-79171380D02*
X204616000Y-79171380D01*
X199210000Y-79131380D02*
X200860000Y-79131380D01*
X202940000Y-79131380D02*
X204590000Y-79131380D01*
X199236000Y-79091380D02*
X200860000Y-79091380D01*
X202940000Y-79091380D02*
X204564000Y-79091380D01*
X199264000Y-79051380D02*
X200860000Y-79051380D01*
X202940000Y-79051380D02*
X204536000Y-79051380D01*
X199293000Y-79011380D02*
X200860000Y-79011380D01*
X202940000Y-79011380D02*
X204507000Y-79011380D01*
X199322000Y-78971380D02*
X200860000Y-78971380D01*
X202940000Y-78971380D02*
X204478000Y-78971380D01*
X199352000Y-78931380D02*
X200860000Y-78931380D01*
X202940000Y-78931380D02*
X204448000Y-78931380D01*
X199384000Y-78891380D02*
X200860000Y-78891380D01*
X202940000Y-78891380D02*
X204416000Y-78891380D01*
X199416000Y-78851380D02*
X200860000Y-78851380D01*
X202940000Y-78851380D02*
X204384000Y-78851380D01*
X199450000Y-78811380D02*
X200860000Y-78811380D01*
X202940000Y-78811380D02*
X204350000Y-78811380D01*
X199484000Y-78771380D02*
X200860000Y-78771380D01*
X202940000Y-78771380D02*
X204316000Y-78771380D01*
X199520000Y-78731380D02*
X200860000Y-78731380D01*
X202940000Y-78731380D02*
X204280000Y-78731380D01*
X199557000Y-78691380D02*
X200860000Y-78691380D01*
X202940000Y-78691380D02*
X204243000Y-78691380D01*
X199595000Y-78651380D02*
X200860000Y-78651380D01*
X202940000Y-78651380D02*
X204205000Y-78651380D01*
X199635000Y-78611380D02*
X204165000Y-78611380D01*
X199676000Y-78571380D02*
X204124000Y-78571380D01*
X199718000Y-78531380D02*
X204082000Y-78531380D01*
X199763000Y-78491380D02*
X204037000Y-78491380D01*
X199808000Y-78451380D02*
X203992000Y-78451380D01*
X199856000Y-78411380D02*
X203944000Y-78411380D01*
X199905000Y-78371380D02*
X203895000Y-78371380D01*
X199956000Y-78331380D02*
X203844000Y-78331380D01*
X200010000Y-78291380D02*
X203790000Y-78291380D01*
X200066000Y-78251380D02*
X203734000Y-78251380D01*
X200124000Y-78211380D02*
X203676000Y-78211380D01*
X200186000Y-78171380D02*
X203614000Y-78171380D01*
X200250000Y-78131380D02*
X203550000Y-78131380D01*
X200319000Y-78091380D02*
X203481000Y-78091380D01*
X200391000Y-78051380D02*
X203409000Y-78051380D01*
X200468000Y-78011380D02*
X203332000Y-78011380D01*
X200550000Y-77971380D02*
X203250000Y-77971380D01*
X200638000Y-77931380D02*
X203162000Y-77931380D01*
X200735000Y-77891380D02*
X203065000Y-77891380D01*
X200841000Y-77851380D02*
X202959000Y-77851380D01*
X200960000Y-77811380D02*
X202840000Y-77811380D01*
X201098000Y-77771380D02*
X202702000Y-77771380D01*
X201267000Y-77731380D02*
X202533000Y-77731380D01*
X201498000Y-77691380D02*
X202302000Y-77691380D01*
X205170000Y-80932380D02*
G75*
G02*
X198630000Y-80932380I-3270000J0D01*
G01*
X198630000Y-80932380D02*
G75*
G02*
X205170000Y-80932380I3270000J0D01*
G01*
%TO.C,C3*%
X204270000Y-104182380D02*
G75*
G02*
X197730000Y-104182380I-3270000J0D01*
G01*
X197730000Y-104182380D02*
G75*
G02*
X204270000Y-104182380I3270000J0D01*
G01*
X200598000Y-100941380D02*
X201402000Y-100941380D01*
X200367000Y-100981380D02*
X201633000Y-100981380D01*
X200198000Y-101021380D02*
X201802000Y-101021380D01*
X200060000Y-101061380D02*
X201940000Y-101061380D01*
X199941000Y-101101380D02*
X202059000Y-101101380D01*
X199835000Y-101141380D02*
X202165000Y-101141380D01*
X199738000Y-101181380D02*
X202262000Y-101181380D01*
X199650000Y-101221380D02*
X202350000Y-101221380D01*
X199568000Y-101261380D02*
X202432000Y-101261380D01*
X199491000Y-101301380D02*
X202509000Y-101301380D01*
X199419000Y-101341380D02*
X202581000Y-101341380D01*
X199350000Y-101381380D02*
X202650000Y-101381380D01*
X199286000Y-101421380D02*
X202714000Y-101421380D01*
X199224000Y-101461380D02*
X202776000Y-101461380D01*
X199166000Y-101501380D02*
X202834000Y-101501380D01*
X199110000Y-101541380D02*
X202890000Y-101541380D01*
X199056000Y-101581380D02*
X202944000Y-101581380D01*
X199005000Y-101621380D02*
X202995000Y-101621380D01*
X198956000Y-101661380D02*
X203044000Y-101661380D01*
X198908000Y-101701380D02*
X203092000Y-101701380D01*
X198863000Y-101741380D02*
X203137000Y-101741380D01*
X198818000Y-101781380D02*
X203182000Y-101781380D01*
X198776000Y-101821380D02*
X203224000Y-101821380D01*
X198735000Y-101861380D02*
X203265000Y-101861380D01*
X202040000Y-101901380D02*
X203305000Y-101901380D01*
X198695000Y-101901380D02*
X199960000Y-101901380D01*
X202040000Y-101941380D02*
X203343000Y-101941380D01*
X198657000Y-101941380D02*
X199960000Y-101941380D01*
X202040000Y-101981380D02*
X203380000Y-101981380D01*
X198620000Y-101981380D02*
X199960000Y-101981380D01*
X202040000Y-102021380D02*
X203416000Y-102021380D01*
X198584000Y-102021380D02*
X199960000Y-102021380D01*
X202040000Y-102061380D02*
X203450000Y-102061380D01*
X198550000Y-102061380D02*
X199960000Y-102061380D01*
X202040000Y-102101380D02*
X203484000Y-102101380D01*
X198516000Y-102101380D02*
X199960000Y-102101380D01*
X202040000Y-102141380D02*
X203516000Y-102141380D01*
X198484000Y-102141380D02*
X199960000Y-102141380D01*
X202040000Y-102181380D02*
X203548000Y-102181380D01*
X198452000Y-102181380D02*
X199960000Y-102181380D01*
X202040000Y-102221380D02*
X203578000Y-102221380D01*
X198422000Y-102221380D02*
X199960000Y-102221380D01*
X202040000Y-102261380D02*
X203607000Y-102261380D01*
X198393000Y-102261380D02*
X199960000Y-102261380D01*
X202040000Y-102301380D02*
X203636000Y-102301380D01*
X198364000Y-102301380D02*
X199960000Y-102301380D01*
X202040000Y-102341380D02*
X203664000Y-102341380D01*
X198336000Y-102341380D02*
X199960000Y-102341380D01*
X202040000Y-102381380D02*
X203690000Y-102381380D01*
X198310000Y-102381380D02*
X199960000Y-102381380D01*
X202040000Y-102421380D02*
X203716000Y-102421380D01*
X198284000Y-102421380D02*
X199960000Y-102421380D01*
X202040000Y-102461380D02*
X203742000Y-102461380D01*
X198258000Y-102461380D02*
X199960000Y-102461380D01*
X202040000Y-102501380D02*
X203766000Y-102501380D01*
X198234000Y-102501380D02*
X199960000Y-102501380D01*
X202040000Y-102541380D02*
X203790000Y-102541380D01*
X198210000Y-102541380D02*
X199960000Y-102541380D01*
X202040000Y-102581380D02*
X203812000Y-102581380D01*
X198188000Y-102581380D02*
X199960000Y-102581380D01*
X202040000Y-102621380D02*
X203834000Y-102621380D01*
X198166000Y-102621380D02*
X199960000Y-102621380D01*
X202040000Y-102661380D02*
X203856000Y-102661380D01*
X198144000Y-102661380D02*
X199960000Y-102661380D01*
X202040000Y-102701380D02*
X203876000Y-102701380D01*
X198124000Y-102701380D02*
X199960000Y-102701380D01*
X202040000Y-102741380D02*
X203896000Y-102741380D01*
X198104000Y-102741380D02*
X199960000Y-102741380D01*
X202040000Y-102781380D02*
X203916000Y-102781380D01*
X198084000Y-102781380D02*
X199960000Y-102781380D01*
X202040000Y-102821380D02*
X203934000Y-102821380D01*
X198066000Y-102821380D02*
X199960000Y-102821380D01*
X202040000Y-102861380D02*
X203952000Y-102861380D01*
X198048000Y-102861380D02*
X199960000Y-102861380D01*
X202040000Y-102901380D02*
X203970000Y-102901380D01*
X198030000Y-102901380D02*
X199960000Y-102901380D01*
X202040000Y-102941380D02*
X203986000Y-102941380D01*
X198014000Y-102941380D02*
X199960000Y-102941380D01*
X202040000Y-102981380D02*
X204002000Y-102981380D01*
X197998000Y-102981380D02*
X199960000Y-102981380D01*
X202040000Y-103021380D02*
X204018000Y-103021380D01*
X197982000Y-103021380D02*
X199960000Y-103021380D01*
X202040000Y-103061380D02*
X204033000Y-103061380D01*
X197967000Y-103061380D02*
X199960000Y-103061380D01*
X202040000Y-103101380D02*
X204047000Y-103101380D01*
X197953000Y-103101380D02*
X199960000Y-103101380D01*
X202040000Y-103141380D02*
X204061000Y-103141380D01*
X197939000Y-103141380D02*
X199960000Y-103141380D01*
X202040000Y-103181380D02*
X204074000Y-103181380D01*
X197926000Y-103181380D02*
X199960000Y-103181380D01*
X202040000Y-103221380D02*
X204086000Y-103221380D01*
X197914000Y-103221380D02*
X199960000Y-103221380D01*
X202040000Y-103261380D02*
X204098000Y-103261380D01*
X197902000Y-103261380D02*
X199960000Y-103261380D01*
X202040000Y-103301380D02*
X204110000Y-103301380D01*
X197890000Y-103301380D02*
X199960000Y-103301380D01*
X202040000Y-103341380D02*
X204121000Y-103341380D01*
X197879000Y-103341380D02*
X199960000Y-103341380D01*
X202040000Y-103381380D02*
X204131000Y-103381380D01*
X197869000Y-103381380D02*
X199960000Y-103381380D01*
X202040000Y-103421380D02*
X204141000Y-103421380D01*
X197859000Y-103421380D02*
X199960000Y-103421380D01*
X202040000Y-103461380D02*
X204150000Y-103461380D01*
X197850000Y-103461380D02*
X199960000Y-103461380D01*
X202040000Y-103502380D02*
X204159000Y-103502380D01*
X197841000Y-103502380D02*
X199960000Y-103502380D01*
X202040000Y-103542380D02*
X204167000Y-103542380D01*
X197833000Y-103542380D02*
X199960000Y-103542380D01*
X202040000Y-103582380D02*
X204175000Y-103582380D01*
X197825000Y-103582380D02*
X199960000Y-103582380D01*
X202040000Y-103622380D02*
X204182000Y-103622380D01*
X197818000Y-103622380D02*
X199960000Y-103622380D01*
X202040000Y-103662380D02*
X204189000Y-103662380D01*
X197811000Y-103662380D02*
X199960000Y-103662380D01*
X202040000Y-103702380D02*
X204195000Y-103702380D01*
X197805000Y-103702380D02*
X199960000Y-103702380D01*
X202040000Y-103742380D02*
X204201000Y-103742380D01*
X197799000Y-103742380D02*
X199960000Y-103742380D01*
X202040000Y-103782380D02*
X204206000Y-103782380D01*
X197794000Y-103782380D02*
X199960000Y-103782380D01*
X202040000Y-103822380D02*
X204211000Y-103822380D01*
X197789000Y-103822380D02*
X199960000Y-103822380D01*
X202040000Y-103862380D02*
X204215000Y-103862380D01*
X197785000Y-103862380D02*
X199960000Y-103862380D01*
X202040000Y-103902380D02*
X204218000Y-103902380D01*
X197782000Y-103902380D02*
X199960000Y-103902380D01*
X202040000Y-103942380D02*
X204222000Y-103942380D01*
X197778000Y-103942380D02*
X199960000Y-103942380D01*
X197776000Y-103982380D02*
X204224000Y-103982380D01*
X197773000Y-104022380D02*
X204227000Y-104022380D01*
X197772000Y-104062380D02*
X204228000Y-104062380D01*
X197770000Y-104102380D02*
X204230000Y-104102380D01*
X197770000Y-104142380D02*
X204230000Y-104142380D01*
X197770000Y-104182380D02*
X204230000Y-104182380D01*
X198846000Y-107367621D02*
X199476000Y-107367621D01*
X199161000Y-107682621D02*
X199161000Y-107052621D01*
%TO.C,C2*%
X162247323Y-80875000D02*
X161247323Y-80875000D01*
X161747323Y-81375000D02*
X161747323Y-80375000D01*
X156767677Y-83080000D02*
X156767677Y-72920000D01*
X156727677Y-83080000D02*
X156727677Y-72920000D01*
X156687677Y-83080000D02*
X156687677Y-72920000D01*
X156647677Y-83079000D02*
X156647677Y-72921000D01*
X156607677Y-83078000D02*
X156607677Y-72922000D01*
X156567677Y-83077000D02*
X156567677Y-72923000D01*
X156527677Y-83075000D02*
X156527677Y-72925000D01*
X156487677Y-83073000D02*
X156487677Y-72927000D01*
X156447677Y-83070000D02*
X156447677Y-72930000D01*
X156407677Y-83068000D02*
X156407677Y-72932000D01*
X156367677Y-83065000D02*
X156367677Y-72935000D01*
X156327677Y-83062000D02*
X156327677Y-72938000D01*
X156287677Y-83058000D02*
X156287677Y-72942000D01*
X156247677Y-83054000D02*
X156247677Y-72946000D01*
X156207677Y-83050000D02*
X156207677Y-72950000D01*
X156167677Y-83045000D02*
X156167677Y-72955000D01*
X156127677Y-83040000D02*
X156127677Y-72960000D01*
X156087677Y-83035000D02*
X156087677Y-72965000D01*
X156046677Y-83030000D02*
X156046677Y-72970000D01*
X156006677Y-83024000D02*
X156006677Y-72976000D01*
X155966677Y-83018000D02*
X155966677Y-72982000D01*
X155926677Y-83011000D02*
X155926677Y-72989000D01*
X155886677Y-83004000D02*
X155886677Y-72996000D01*
X155846677Y-82997000D02*
X155846677Y-73003000D01*
X155806677Y-82990000D02*
X155806677Y-73010000D01*
X155766677Y-82982000D02*
X155766677Y-73018000D01*
X155726677Y-82974000D02*
X155726677Y-73026000D01*
X155686677Y-82965000D02*
X155686677Y-73035000D01*
X155646677Y-82956000D02*
X155646677Y-73044000D01*
X155606677Y-82947000D02*
X155606677Y-73053000D01*
X155566677Y-82938000D02*
X155566677Y-73062000D01*
X155526677Y-82928000D02*
X155526677Y-73072000D01*
X155486677Y-82918000D02*
X155486677Y-79241000D01*
X155486677Y-76759000D02*
X155486677Y-73082000D01*
X155446677Y-82907000D02*
X155446677Y-79241000D01*
X155446677Y-76759000D02*
X155446677Y-73093000D01*
X155406677Y-82897000D02*
X155406677Y-79241000D01*
X155406677Y-76759000D02*
X155406677Y-73103000D01*
X155366677Y-82885000D02*
X155366677Y-79241000D01*
X155366677Y-76759000D02*
X155366677Y-73115000D01*
X155326677Y-82874000D02*
X155326677Y-79241000D01*
X155326677Y-76759000D02*
X155326677Y-73126000D01*
X155286677Y-82862000D02*
X155286677Y-79241000D01*
X155286677Y-76759000D02*
X155286677Y-73138000D01*
X155246677Y-82850000D02*
X155246677Y-79241000D01*
X155246677Y-76759000D02*
X155246677Y-73150000D01*
X155206677Y-82837000D02*
X155206677Y-79241000D01*
X155206677Y-76759000D02*
X155206677Y-73163000D01*
X155166677Y-82824000D02*
X155166677Y-79241000D01*
X155166677Y-76759000D02*
X155166677Y-73176000D01*
X155126677Y-82811000D02*
X155126677Y-79241000D01*
X155126677Y-76759000D02*
X155126677Y-73189000D01*
X155086677Y-82797000D02*
X155086677Y-79241000D01*
X155086677Y-76759000D02*
X155086677Y-73203000D01*
X155046677Y-82783000D02*
X155046677Y-79241000D01*
X155046677Y-76759000D02*
X155046677Y-73217000D01*
X155006677Y-82768000D02*
X155006677Y-79241000D01*
X155006677Y-76759000D02*
X155006677Y-73232000D01*
X154966677Y-82754000D02*
X154966677Y-79241000D01*
X154966677Y-76759000D02*
X154966677Y-73246000D01*
X154926677Y-82738000D02*
X154926677Y-79241000D01*
X154926677Y-76759000D02*
X154926677Y-73262000D01*
X154886677Y-82723000D02*
X154886677Y-79241000D01*
X154886677Y-76759000D02*
X154886677Y-73277000D01*
X154846677Y-82707000D02*
X154846677Y-79241000D01*
X154846677Y-76759000D02*
X154846677Y-73293000D01*
X154806677Y-82690000D02*
X154806677Y-79241000D01*
X154806677Y-76759000D02*
X154806677Y-73310000D01*
X154766677Y-82674000D02*
X154766677Y-79241000D01*
X154766677Y-76759000D02*
X154766677Y-73326000D01*
X154726677Y-82657000D02*
X154726677Y-79241000D01*
X154726677Y-76759000D02*
X154726677Y-73343000D01*
X154686677Y-82639000D02*
X154686677Y-79241000D01*
X154686677Y-76759000D02*
X154686677Y-73361000D01*
X154646677Y-82621000D02*
X154646677Y-79241000D01*
X154646677Y-76759000D02*
X154646677Y-73379000D01*
X154606677Y-82603000D02*
X154606677Y-79241000D01*
X154606677Y-76759000D02*
X154606677Y-73397000D01*
X154566677Y-82584000D02*
X154566677Y-79241000D01*
X154566677Y-76759000D02*
X154566677Y-73416000D01*
X154526677Y-82564000D02*
X154526677Y-79241000D01*
X154526677Y-76759000D02*
X154526677Y-73436000D01*
X154486677Y-82545000D02*
X154486677Y-79241000D01*
X154486677Y-76759000D02*
X154486677Y-73455000D01*
X154446677Y-82525000D02*
X154446677Y-79241000D01*
X154446677Y-76759000D02*
X154446677Y-73475000D01*
X154406677Y-82504000D02*
X154406677Y-79241000D01*
X154406677Y-76759000D02*
X154406677Y-73496000D01*
X154366677Y-82483000D02*
X154366677Y-79241000D01*
X154366677Y-76759000D02*
X154366677Y-73517000D01*
X154326677Y-82462000D02*
X154326677Y-79241000D01*
X154326677Y-76759000D02*
X154326677Y-73538000D01*
X154286677Y-82440000D02*
X154286677Y-79241000D01*
X154286677Y-76759000D02*
X154286677Y-73560000D01*
X154246677Y-82417000D02*
X154246677Y-79241000D01*
X154246677Y-76759000D02*
X154246677Y-73583000D01*
X154206677Y-82395000D02*
X154206677Y-79241000D01*
X154206677Y-76759000D02*
X154206677Y-73605000D01*
X154166677Y-82371000D02*
X154166677Y-79241000D01*
X154166677Y-76759000D02*
X154166677Y-73629000D01*
X154126677Y-82347000D02*
X154126677Y-79241000D01*
X154126677Y-76759000D02*
X154126677Y-73653000D01*
X154086677Y-82323000D02*
X154086677Y-79241000D01*
X154086677Y-76759000D02*
X154086677Y-73677000D01*
X154046677Y-82298000D02*
X154046677Y-79241000D01*
X154046677Y-76759000D02*
X154046677Y-73702000D01*
X154006677Y-82273000D02*
X154006677Y-79241000D01*
X154006677Y-76759000D02*
X154006677Y-73727000D01*
X153966677Y-82247000D02*
X153966677Y-79241000D01*
X153966677Y-76759000D02*
X153966677Y-73753000D01*
X153926677Y-82221000D02*
X153926677Y-79241000D01*
X153926677Y-76759000D02*
X153926677Y-73779000D01*
X153886677Y-82194000D02*
X153886677Y-79241000D01*
X153886677Y-76759000D02*
X153886677Y-73806000D01*
X153846677Y-82166000D02*
X153846677Y-79241000D01*
X153846677Y-76759000D02*
X153846677Y-73834000D01*
X153806677Y-82138000D02*
X153806677Y-79241000D01*
X153806677Y-76759000D02*
X153806677Y-73862000D01*
X153766677Y-82110000D02*
X153766677Y-79241000D01*
X153766677Y-76759000D02*
X153766677Y-73890000D01*
X153726677Y-82080000D02*
X153726677Y-79241000D01*
X153726677Y-76759000D02*
X153726677Y-73920000D01*
X153686677Y-82050000D02*
X153686677Y-79241000D01*
X153686677Y-76759000D02*
X153686677Y-73950000D01*
X153646677Y-82020000D02*
X153646677Y-79241000D01*
X153646677Y-76759000D02*
X153646677Y-73980000D01*
X153606677Y-81989000D02*
X153606677Y-79241000D01*
X153606677Y-76759000D02*
X153606677Y-74011000D01*
X153566677Y-81957000D02*
X153566677Y-79241000D01*
X153566677Y-76759000D02*
X153566677Y-74043000D01*
X153526677Y-81925000D02*
X153526677Y-79241000D01*
X153526677Y-76759000D02*
X153526677Y-74075000D01*
X153486677Y-81892000D02*
X153486677Y-79241000D01*
X153486677Y-76759000D02*
X153486677Y-74108000D01*
X153446677Y-81858000D02*
X153446677Y-79241000D01*
X153446677Y-76759000D02*
X153446677Y-74142000D01*
X153406677Y-81824000D02*
X153406677Y-79241000D01*
X153406677Y-76759000D02*
X153406677Y-74176000D01*
X153366677Y-81789000D02*
X153366677Y-79241000D01*
X153366677Y-76759000D02*
X153366677Y-74211000D01*
X153326677Y-81753000D02*
X153326677Y-79241000D01*
X153326677Y-76759000D02*
X153326677Y-74247000D01*
X153286677Y-81716000D02*
X153286677Y-79241000D01*
X153286677Y-76759000D02*
X153286677Y-74284000D01*
X153246677Y-81679000D02*
X153246677Y-79241000D01*
X153246677Y-76759000D02*
X153246677Y-74321000D01*
X153206677Y-81640000D02*
X153206677Y-79241000D01*
X153206677Y-76759000D02*
X153206677Y-74360000D01*
X153166677Y-81601000D02*
X153166677Y-79241000D01*
X153166677Y-76759000D02*
X153166677Y-74399000D01*
X153126677Y-81561000D02*
X153126677Y-79241000D01*
X153126677Y-76759000D02*
X153126677Y-74439000D01*
X153086677Y-81520000D02*
X153086677Y-79241000D01*
X153086677Y-76759000D02*
X153086677Y-74480000D01*
X153046677Y-81478000D02*
X153046677Y-79241000D01*
X153046677Y-76759000D02*
X153046677Y-74522000D01*
X153006677Y-81436000D02*
X153006677Y-74564000D01*
X152966677Y-81392000D02*
X152966677Y-74608000D01*
X152926677Y-81347000D02*
X152926677Y-74653000D01*
X152886677Y-81301000D02*
X152886677Y-74699000D01*
X152846677Y-81254000D02*
X152846677Y-74746000D01*
X152806677Y-81206000D02*
X152806677Y-74794000D01*
X152766677Y-81156000D02*
X152766677Y-74844000D01*
X152726677Y-81106000D02*
X152726677Y-74894000D01*
X152686677Y-81054000D02*
X152686677Y-74946000D01*
X152646677Y-81000000D02*
X152646677Y-75000000D01*
X152606677Y-80945000D02*
X152606677Y-75055000D01*
X152566677Y-80889000D02*
X152566677Y-75111000D01*
X152526677Y-80830000D02*
X152526677Y-75170000D01*
X152486677Y-80770000D02*
X152486677Y-75230000D01*
X152446677Y-80709000D02*
X152446677Y-75291000D01*
X152406677Y-80645000D02*
X152406677Y-75355000D01*
X152366677Y-80579000D02*
X152366677Y-75421000D01*
X152326677Y-80510000D02*
X152326677Y-75490000D01*
X152286677Y-80439000D02*
X152286677Y-75561000D01*
X152246677Y-80365000D02*
X152246677Y-75635000D01*
X152206677Y-80289000D02*
X152206677Y-75711000D01*
X152166677Y-80209000D02*
X152166677Y-75791000D01*
X152126677Y-80125000D02*
X152126677Y-75875000D01*
X152086677Y-80037000D02*
X152086677Y-75963000D01*
X152046677Y-79944000D02*
X152046677Y-76056000D01*
X152006677Y-79846000D02*
X152006677Y-76154000D01*
X151966677Y-79742000D02*
X151966677Y-76258000D01*
X151926677Y-79630000D02*
X151926677Y-76370000D01*
X151886677Y-79510000D02*
X151886677Y-76490000D01*
X151846677Y-79378000D02*
X151846677Y-76622000D01*
X151806677Y-79230000D02*
X151806677Y-76770000D01*
X151766677Y-79062000D02*
X151766677Y-76938000D01*
X151726677Y-78862000D02*
X151726677Y-77138000D01*
X151686677Y-78599000D02*
X151686677Y-77401000D01*
X161887677Y-78000000D02*
G75*
G02*
X151647677Y-78000000I-5120000J0D01*
G01*
X151647677Y-78000000D02*
G75*
G02*
X161887677Y-78000000I5120000J0D01*
G01*
%TO.C,C1*%
X161987677Y-107000000D02*
G75*
G02*
X151747677Y-107000000I-5120000J0D01*
G01*
X151747677Y-107000000D02*
G75*
G02*
X161987677Y-107000000I5120000J0D01*
G01*
X151786677Y-107599000D02*
X151786677Y-106401000D01*
X151826677Y-107862000D02*
X151826677Y-106138000D01*
X151866677Y-108062000D02*
X151866677Y-105938000D01*
X151906677Y-108230000D02*
X151906677Y-105770000D01*
X151946677Y-108378000D02*
X151946677Y-105622000D01*
X151986677Y-108510000D02*
X151986677Y-105490000D01*
X152026677Y-108630000D02*
X152026677Y-105370000D01*
X152066677Y-108742000D02*
X152066677Y-105258000D01*
X152106677Y-108846000D02*
X152106677Y-105154000D01*
X152146677Y-108944000D02*
X152146677Y-105056000D01*
X152186677Y-109037000D02*
X152186677Y-104963000D01*
X152226677Y-109125000D02*
X152226677Y-104875000D01*
X152266677Y-109209000D02*
X152266677Y-104791000D01*
X152306677Y-109289000D02*
X152306677Y-104711000D01*
X152346677Y-109365000D02*
X152346677Y-104635000D01*
X152386677Y-109439000D02*
X152386677Y-104561000D01*
X152426677Y-109510000D02*
X152426677Y-104490000D01*
X152466677Y-109579000D02*
X152466677Y-104421000D01*
X152506677Y-109645000D02*
X152506677Y-104355000D01*
X152546677Y-109709000D02*
X152546677Y-104291000D01*
X152586677Y-109770000D02*
X152586677Y-104230000D01*
X152626677Y-109830000D02*
X152626677Y-104170000D01*
X152666677Y-109889000D02*
X152666677Y-104111000D01*
X152706677Y-109945000D02*
X152706677Y-104055000D01*
X152746677Y-110000000D02*
X152746677Y-104000000D01*
X152786677Y-110054000D02*
X152786677Y-103946000D01*
X152826677Y-110106000D02*
X152826677Y-103894000D01*
X152866677Y-110156000D02*
X152866677Y-103844000D01*
X152906677Y-110206000D02*
X152906677Y-103794000D01*
X152946677Y-110254000D02*
X152946677Y-103746000D01*
X152986677Y-110301000D02*
X152986677Y-103699000D01*
X153026677Y-110347000D02*
X153026677Y-103653000D01*
X153066677Y-110392000D02*
X153066677Y-103608000D01*
X153106677Y-110436000D02*
X153106677Y-103564000D01*
X153146677Y-105759000D02*
X153146677Y-103522000D01*
X153146677Y-110478000D02*
X153146677Y-108241000D01*
X153186677Y-105759000D02*
X153186677Y-103480000D01*
X153186677Y-110520000D02*
X153186677Y-108241000D01*
X153226677Y-105759000D02*
X153226677Y-103439000D01*
X153226677Y-110561000D02*
X153226677Y-108241000D01*
X153266677Y-105759000D02*
X153266677Y-103399000D01*
X153266677Y-110601000D02*
X153266677Y-108241000D01*
X153306677Y-105759000D02*
X153306677Y-103360000D01*
X153306677Y-110640000D02*
X153306677Y-108241000D01*
X153346677Y-105759000D02*
X153346677Y-103321000D01*
X153346677Y-110679000D02*
X153346677Y-108241000D01*
X153386677Y-105759000D02*
X153386677Y-103284000D01*
X153386677Y-110716000D02*
X153386677Y-108241000D01*
X153426677Y-105759000D02*
X153426677Y-103247000D01*
X153426677Y-110753000D02*
X153426677Y-108241000D01*
X153466677Y-105759000D02*
X153466677Y-103211000D01*
X153466677Y-110789000D02*
X153466677Y-108241000D01*
X153506677Y-105759000D02*
X153506677Y-103176000D01*
X153506677Y-110824000D02*
X153506677Y-108241000D01*
X153546677Y-105759000D02*
X153546677Y-103142000D01*
X153546677Y-110858000D02*
X153546677Y-108241000D01*
X153586677Y-105759000D02*
X153586677Y-103108000D01*
X153586677Y-110892000D02*
X153586677Y-108241000D01*
X153626677Y-105759000D02*
X153626677Y-103075000D01*
X153626677Y-110925000D02*
X153626677Y-108241000D01*
X153666677Y-105759000D02*
X153666677Y-103043000D01*
X153666677Y-110957000D02*
X153666677Y-108241000D01*
X153706677Y-105759000D02*
X153706677Y-103011000D01*
X153706677Y-110989000D02*
X153706677Y-108241000D01*
X153746677Y-105759000D02*
X153746677Y-102980000D01*
X153746677Y-111020000D02*
X153746677Y-108241000D01*
X153786677Y-105759000D02*
X153786677Y-102950000D01*
X153786677Y-111050000D02*
X153786677Y-108241000D01*
X153826677Y-105759000D02*
X153826677Y-102920000D01*
X153826677Y-111080000D02*
X153826677Y-108241000D01*
X153866677Y-105759000D02*
X153866677Y-102890000D01*
X153866677Y-111110000D02*
X153866677Y-108241000D01*
X153906677Y-105759000D02*
X153906677Y-102862000D01*
X153906677Y-111138000D02*
X153906677Y-108241000D01*
X153946677Y-105759000D02*
X153946677Y-102834000D01*
X153946677Y-111166000D02*
X153946677Y-108241000D01*
X153986677Y-105759000D02*
X153986677Y-102806000D01*
X153986677Y-111194000D02*
X153986677Y-108241000D01*
X154026677Y-105759000D02*
X154026677Y-102779000D01*
X154026677Y-111221000D02*
X154026677Y-108241000D01*
X154066677Y-105759000D02*
X154066677Y-102753000D01*
X154066677Y-111247000D02*
X154066677Y-108241000D01*
X154106677Y-105759000D02*
X154106677Y-102727000D01*
X154106677Y-111273000D02*
X154106677Y-108241000D01*
X154146677Y-105759000D02*
X154146677Y-102702000D01*
X154146677Y-111298000D02*
X154146677Y-108241000D01*
X154186677Y-105759000D02*
X154186677Y-102677000D01*
X154186677Y-111323000D02*
X154186677Y-108241000D01*
X154226677Y-105759000D02*
X154226677Y-102653000D01*
X154226677Y-111347000D02*
X154226677Y-108241000D01*
X154266677Y-105759000D02*
X154266677Y-102629000D01*
X154266677Y-111371000D02*
X154266677Y-108241000D01*
X154306677Y-105759000D02*
X154306677Y-102605000D01*
X154306677Y-111395000D02*
X154306677Y-108241000D01*
X154346677Y-105759000D02*
X154346677Y-102583000D01*
X154346677Y-111417000D02*
X154346677Y-108241000D01*
X154386677Y-105759000D02*
X154386677Y-102560000D01*
X154386677Y-111440000D02*
X154386677Y-108241000D01*
X154426677Y-105759000D02*
X154426677Y-102538000D01*
X154426677Y-111462000D02*
X154426677Y-108241000D01*
X154466677Y-105759000D02*
X154466677Y-102517000D01*
X154466677Y-111483000D02*
X154466677Y-108241000D01*
X154506677Y-105759000D02*
X154506677Y-102496000D01*
X154506677Y-111504000D02*
X154506677Y-108241000D01*
X154546677Y-105759000D02*
X154546677Y-102475000D01*
X154546677Y-111525000D02*
X154546677Y-108241000D01*
X154586677Y-105759000D02*
X154586677Y-102455000D01*
X154586677Y-111545000D02*
X154586677Y-108241000D01*
X154626677Y-105759000D02*
X154626677Y-102436000D01*
X154626677Y-111564000D02*
X154626677Y-108241000D01*
X154666677Y-105759000D02*
X154666677Y-102416000D01*
X154666677Y-111584000D02*
X154666677Y-108241000D01*
X154706677Y-105759000D02*
X154706677Y-102397000D01*
X154706677Y-111603000D02*
X154706677Y-108241000D01*
X154746677Y-105759000D02*
X154746677Y-102379000D01*
X154746677Y-111621000D02*
X154746677Y-108241000D01*
X154786677Y-105759000D02*
X154786677Y-102361000D01*
X154786677Y-111639000D02*
X154786677Y-108241000D01*
X154826677Y-105759000D02*
X154826677Y-102343000D01*
X154826677Y-111657000D02*
X154826677Y-108241000D01*
X154866677Y-105759000D02*
X154866677Y-102326000D01*
X154866677Y-111674000D02*
X154866677Y-108241000D01*
X154906677Y-105759000D02*
X154906677Y-102310000D01*
X154906677Y-111690000D02*
X154906677Y-108241000D01*
X154946677Y-105759000D02*
X154946677Y-102293000D01*
X154946677Y-111707000D02*
X154946677Y-108241000D01*
X154986677Y-105759000D02*
X154986677Y-102277000D01*
X154986677Y-111723000D02*
X154986677Y-108241000D01*
X155026677Y-105759000D02*
X155026677Y-102262000D01*
X155026677Y-111738000D02*
X155026677Y-108241000D01*
X155066677Y-105759000D02*
X155066677Y-102246000D01*
X155066677Y-111754000D02*
X155066677Y-108241000D01*
X155106677Y-105759000D02*
X155106677Y-102232000D01*
X155106677Y-111768000D02*
X155106677Y-108241000D01*
X155146677Y-105759000D02*
X155146677Y-102217000D01*
X155146677Y-111783000D02*
X155146677Y-108241000D01*
X155186677Y-105759000D02*
X155186677Y-102203000D01*
X155186677Y-111797000D02*
X155186677Y-108241000D01*
X155226677Y-105759000D02*
X155226677Y-102189000D01*
X155226677Y-111811000D02*
X155226677Y-108241000D01*
X155266677Y-105759000D02*
X155266677Y-102176000D01*
X155266677Y-111824000D02*
X155266677Y-108241000D01*
X155306677Y-105759000D02*
X155306677Y-102163000D01*
X155306677Y-111837000D02*
X155306677Y-108241000D01*
X155346677Y-105759000D02*
X155346677Y-102150000D01*
X155346677Y-111850000D02*
X155346677Y-108241000D01*
X155386677Y-105759000D02*
X155386677Y-102138000D01*
X155386677Y-111862000D02*
X155386677Y-108241000D01*
X155426677Y-105759000D02*
X155426677Y-102126000D01*
X155426677Y-111874000D02*
X155426677Y-108241000D01*
X155466677Y-105759000D02*
X155466677Y-102115000D01*
X155466677Y-111885000D02*
X155466677Y-108241000D01*
X155506677Y-105759000D02*
X155506677Y-102103000D01*
X155506677Y-111897000D02*
X155506677Y-108241000D01*
X155546677Y-105759000D02*
X155546677Y-102093000D01*
X155546677Y-111907000D02*
X155546677Y-108241000D01*
X155586677Y-105759000D02*
X155586677Y-102082000D01*
X155586677Y-111918000D02*
X155586677Y-108241000D01*
X155626677Y-111928000D02*
X155626677Y-102072000D01*
X155666677Y-111938000D02*
X155666677Y-102062000D01*
X155706677Y-111947000D02*
X155706677Y-102053000D01*
X155746677Y-111956000D02*
X155746677Y-102044000D01*
X155786677Y-111965000D02*
X155786677Y-102035000D01*
X155826677Y-111974000D02*
X155826677Y-102026000D01*
X155866677Y-111982000D02*
X155866677Y-102018000D01*
X155906677Y-111990000D02*
X155906677Y-102010000D01*
X155946677Y-111997000D02*
X155946677Y-102003000D01*
X155986677Y-112004000D02*
X155986677Y-101996000D01*
X156026677Y-112011000D02*
X156026677Y-101989000D01*
X156066677Y-112018000D02*
X156066677Y-101982000D01*
X156106677Y-112024000D02*
X156106677Y-101976000D01*
X156146677Y-112030000D02*
X156146677Y-101970000D01*
X156187677Y-112035000D02*
X156187677Y-101965000D01*
X156227677Y-112040000D02*
X156227677Y-101960000D01*
X156267677Y-112045000D02*
X156267677Y-101955000D01*
X156307677Y-112050000D02*
X156307677Y-101950000D01*
X156347677Y-112054000D02*
X156347677Y-101946000D01*
X156387677Y-112058000D02*
X156387677Y-101942000D01*
X156427677Y-112062000D02*
X156427677Y-101938000D01*
X156467677Y-112065000D02*
X156467677Y-101935000D01*
X156507677Y-112068000D02*
X156507677Y-101932000D01*
X156547677Y-112070000D02*
X156547677Y-101930000D01*
X156587677Y-112073000D02*
X156587677Y-101927000D01*
X156627677Y-112075000D02*
X156627677Y-101925000D01*
X156667677Y-112077000D02*
X156667677Y-101923000D01*
X156707677Y-112078000D02*
X156707677Y-101922000D01*
X156747677Y-112079000D02*
X156747677Y-101921000D01*
X156787677Y-112080000D02*
X156787677Y-101920000D01*
X156827677Y-112080000D02*
X156827677Y-101920000D01*
X156867677Y-112080000D02*
X156867677Y-101920000D01*
X161847323Y-110375000D02*
X161847323Y-109375000D01*
X162347323Y-109875000D02*
X161347323Y-109875000D01*
%TO.C,U2*%
X163832677Y-109650000D02*
X163362677Y-109990000D01*
X163362677Y-109310000D01*
X163832677Y-109650000D01*
G36*
X163832677Y-109650000D02*
G01*
X163362677Y-109990000D01*
X163362677Y-109310000D01*
X163832677Y-109650000D01*
G37*
X173242677Y-105460000D02*
X173242677Y-106825000D01*
X162842677Y-105460000D02*
X162842677Y-106825000D01*
X173242677Y-106825000D02*
X172292677Y-106825000D01*
X162842677Y-106825000D02*
X163792677Y-106825000D01*
%TD*%
M02*
