<?xml version="1.0" standalone="no"?>
<!DOCTYPE svg PUBLIC "-//W3C//DTD SVG 20010904//EN"
 "http://www.w3.org/TR/2001/REC-SVG-20010904/DTD/svg10.dtd">
<svg version="1.0" xmlns="http://www.w3.org/2000/svg"
 width="1890.000000pt" height="1417.000000pt" viewBox="0 0 1890.000000 1417.000000"
 preserveAspectRatio="xMidYMid meet">

<g transform="translate(0.000000,1417.000000) scale(0.100000,-0.100000)"
fill="#000000" stroke="none">
<path d="M0 7085 l0 -7085 9450 0 9450 0 0 7085 0 7085 -9450 0 -9450 0 0
-7085z m7764 754 c16 -44 32 -77 36 -72 4 4 20 41 35 81 26 66 31 73 53 70 21
-3 30 -16 55 -81 17 -42 33 -75 36 -72 3 4 17 38 31 78 23 63 30 72 53 75 15
2 27 0 27 -4 0 -5 -21 -63 -47 -131 -40 -106 -49 -123 -69 -123 -18 0 -28 14
-57 88 -35 86 -36 87 -47 57 -44 -119 -56 -140 -81 -143 -22 -2 -27 6 -68 115
-24 65 -46 124 -48 131 -4 8 6 12 29 12 33 0 34 -1 62 -81z m676 56 l0 -25
-100 0 -100 0 0 -25 c0 -24 3 -25 60 -25 57 0 60 -1 60 -25 0 -24 -3 -25 -60
-25 l-60 0 0 -30 0 -30 105 0 105 0 0 -25 0 -25 -140 0 -140 0 0 130 0 130
135 0 135 0 0 -25z m389 -7 c18 -31 16 -34 -22 -43 -21 -6 -27 -4 -27 9 0 13
-14 16 -85 16 -84 0 -85 0 -85 -25 l0 -25 105 0 c118 0 125 -4 125 -80 0 -78
-4 -80 -144 -80 -129 0 -138 3 -148 47 -4 14 0 24 9 27 26 10 43 6 43 -9 0
-12 17 -15 90 -15 l90 0 0 30 0 30 -97 0 c-54 0 -105 5 -113 10 -20 12 -20
101 -1 124 12 14 31 16 130 14 114 -3 115 -3 130 -30z m381 7 c0 -24 -3 -25
-60 -25 l-60 0 0 -105 0 -105 -35 0 -35 0 0 105 0 105 -60 0 c-57 0 -60 1 -60
25 l0 25 155 0 155 0 0 -25z m175 -50 c31 -41 59 -75 61 -75 2 0 29 34 59 75
43 58 61 75 80 75 l25 0 0 -130 0 -130 -25 0 c-24 0 -24 2 -27 85 l-3 86 -53
-71 c-29 -38 -56 -70 -61 -70 -5 0 -31 30 -58 66 l-48 66 -3 -81 -3 -81 -29 0
-30 0 0 130 0 130 29 0 c23 0 38 -13 86 -75z m653 63 c8 -8 12 -49 12 -118 0
-69 -4 -110 -12 -118 -8 -8 -56 -12 -148 -12 -92 0 -140 4 -148 12 -8 8 -12
49 -12 118 0 69 4 110 12 118 8 8 56 12 148 12 92 0 140 -4 148 -12z m202 -93
l0 -105 80 0 80 0 0 105 0 105 35 0 35 0 0 -114 c0 -150 4 -146 -149 -146 -98
0 -121 3 -132 17 -10 11 -15 52 -17 130 l-4 113 36 0 36 0 0 -105z m495 25
c51 -44 96 -80 99 -80 3 0 6 36 6 80 l0 80 30 0 30 0 0 -130 c0 -129 0 -130
-23 -130 -14 0 -61 32 -122 84 l-100 84 -3 -84 -3 -84 -29 0 -30 0 0 130 0
130 26 0 c18 0 54 -24 119 -80z m545 55 c0 -24 -3 -25 -60 -25 l-60 0 0 -105
0 -105 -35 0 -35 0 0 105 0 105 -60 0 c-57 0 -60 1 -60 25 l0 25 155 0 155 0
0 -25z m705 -365 l-35 -70 -260 0 -259 0 -3 -67 -3 -68 -58 -3 c-74 -4 -87 7
-87 68 0 53 -16 73 -52 68 -19 -2 -24 -10 -26 -41 -4 -47 1 -54 97 -121 132
-93 151 -126 151 -260 0 -105 -17 -141 -85 -176 -70 -36 -188 -36 -260 0 -67
34 -87 71 -93 171 l-5 79 92 0 91 0 0 -63 c0 -65 11 -87 42 -87 25 0 41 45 33
91 -7 41 -29 64 -127 133 -37 26 -78 60 -92 76 -50 60 -57 206 -12 273 45 67
41 67 539 67 l447 0 -35 -70z m-4155 54 c0 -13 51 -309 56 -323 9 -28 17 2 43
161 l27 163 102 3 102 3 0 -296 c0 -166 4 -295 9 -295 13 0 15 15 57 318 l37
272 129 0 c70 0 128 -4 128 -8 0 -19 77 -530 106 -700 l5 -33 -88 3 -88 3 -8
63 -9 63 -46 -3 c-44 -3 -47 -5 -50 -33 -1 -16 -5 -45 -8 -62 l-5 -33 -164 0
-165 0 0 175 c0 104 -4 175 -10 175 -5 0 -12 -15 -15 -32 -10 -60 -45 -301
-45 -310 0 -5 -17 -8 -37 -6 l-37 3 -13 85 c-43 292 -40 280 -53 280 -6 0 -10
-71 -10 -185 l0 -185 -80 0 -80 0 -2 298 -3 297 -322 3 -321 2 -28 48 c-15 26
-34 57 -42 70 l-14 22 471 0 c259 0 471 -3 471 -6z m924 -16 c3 -13 12 -120
21 -238 24 -298 33 -299 55 -5 5 77 13 168 16 203 l6 62 249 0 249 0 0 -70 0
-69 -67 -3 -68 -3 0 -65 0 -65 58 -3 57 -3 0 -69 0 -70 -60 0 -60 0 0 -90 0
-90 70 0 70 0 0 -70 0 -70 -160 0 -160 0 0 300 c0 173 -4 300 -9 300 -5 0 -12
-21 -15 -47 -20 -157 -66 -538 -66 -545 0 -4 -60 -8 -133 -8 l-133 0 -17 123
c-9 67 -26 194 -37 282 -11 88 -25 187 -30 221 -6 33 -10 73 -10 87 l0 27 85
0 c80 0 85 -1 89 -22z m986 -34 l58 -55 1 -94 1 -94 -42 -35 -42 -36 42 -43
41 -42 0 -142 0 -143 -90 0 -89 0 0 145 0 145 -30 0 -30 0 0 -145 0 -145 -90
0 -90 0 0 370 0 370 151 0 150 0 59 -56z m290 -314 l0 -370 -90 0 -90 0 0 370
0 370 90 0 90 0 0 -370z m411 319 l59 -52 0 -93 0 -94 -85 0 -84 0 -3 73 -3
72 -30 0 -30 0 0 -225 0 -225 30 0 30 0 3 88 3 87 84 0 85 0 0 -109 0 -109
-56 -51 -56 -51 -93 0 -94 0 -53 47 c-29 25 -56 51 -60 57 -4 6 -8 128 -8 270
l0 259 58 53 57 53 93 1 94 0 59 -51z m275 -82 c1 -70 3 -130 6 -133 5 -4 25
46 84 214 l19 52 97 0 97 0 -13 -27 c-7 -16 -37 -80 -68 -143 -92 -191 -92
-157 1 -368 45 -101 81 -188 81 -193 0 -6 -36 -9 -92 -7 l-92 3 -50 126 c-28
70 -55 128 -61 130 -6 3 -11 -45 -13 -128 l-3 -133 -84 0 -85 0 0 370 0 371
88 -3 87 -3 1 -128z m1174 -117 l-40 -80 -209 0 c-177 0 -214 3 -247 17 l-39
18 48 3 47 3 0 60 0 59 240 0 240 0 -40 -80z m-4307 60 c3 -3 3 -38 0 -77 l-6
-73 -246 0 -246 0 -43 71 c-23 38 -42 75 -42 80 0 11 573 9 583 -1z m4201
-262 c-20 -40 -42 -76 -48 -81 -6 -4 -65 -6 -131 -5 l-120 3 -8 55 c-4 30 -14
64 -22 77 l-15 23 190 0 190 0 -36 -72z m-4204 -18 l0 -80 -187 2 -186 3 -43
70 c-24 39 -44 73 -44 78 0 4 104 7 230 7 l230 0 0 -80z m4130 -127 c0 -5 -15
-35 -33 -68 l-32 -60 -108 -3 -109 -3 21 27 c11 14 23 42 27 63 4 20 9 39 11
44 2 4 53 7 114 7 60 0 109 -3 109 -7z m-4130 -73 c0 -39 -4 -71 -10 -71 -5
-1 -17 -1 -25 -1 -8 0 -62 0 -119 1 l-104 1 -28 48 c-15 26 -34 57 -42 70
l-14 22 171 0 171 0 0 -70z m1985 -223 l30 -92 113 -3 c61 -1 112 -6 111 -10
0 -4 -38 -34 -84 -67 -47 -33 -85 -67 -85 -76 0 -8 13 -55 30 -104 16 -49 28
-91 25 -93 -2 -3 -42 23 -89 57 -46 33 -87 61 -90 61 -3 0 -43 -27 -88 -60
-45 -33 -85 -60 -89 -60 -4 0 2 28 13 63 11 34 26 81 33 105 l13 42 -88 63
c-49 34 -89 65 -90 70 0 4 51 7 113 7 l113 0 33 101 c18 55 36 98 39 94 4 -4
21 -48 37 -98z m2033 88 c2 -1 -12 -32 -30 -69 l-32 -66 -166 0 c-91 0 -505 0
-921 -2 -603 -2 -760 0 -772 10 -9 8 -25 40 -35 72 l-20 59 36 3 c46 4 1936
-3 1940 -7z m-2181 -7 c-2 -7 -13 -39 -23 -70 l-18 -58 -110 -1 c-61 0 -496 0
-966 1 -839 1 -855 1 -870 20 -8 11 -28 42 -43 70 l-28 50 1031 0 c822 0 1031
-3 1027 -12z"/>
<path d="M9790 7790 l0 -80 95 0 95 0 0 80 0 80 -95 0 -95 0 0 -80z"/>
<path d="M8376 7318 c-4 -51 -10 -114 -13 -140 l-6 -48 32 0 c27 0 31 3 31 27
0 57 -23 253 -30 253 -4 0 -10 -42 -14 -92z"/>
<path d="M9567 7444 c-4 -4 -7 -40 -7 -81 l0 -73 30 0 31 0 -3 78 c-3 69 -5
77 -23 80 -12 2 -24 0 -28 -4z"/>
</g>
</svg>
